<svg width="24" height="24" viewBox="0 0 24 24" fill="white" xmlns="http://www.w3.org/2000/svg">
  <path
    fill-rule="evenodd"
    clip-rule="evenodd"
    d="M9 6.75C9 5.29103 10.2814 4 12 4C13.7186 4 15 5.29103 15 6.75C15 7.30228 15.4477 7.75 16 7.75C16.5523 7.75 17 7.30228 17 6.75C17 4.06683 14.6996 2 12 2C9.30035 2 7 4.06683 7 6.75V9H5.77778C4.79594 9 4 9.76751 4 10.7143V19.2857C4 20.2325 4.79594 21 5.77778 21H18.2222C19.2041 21 20 20.2325 20 19.2857V10.7143C20 9.76751 19.2041 9 18.2222 9H9V6.75ZM6 19V11H18V19H6Z"
  />
</svg>
