<svg width="24" height="24" viewBox="0 0 24 24" fill="white" xmlns="http://www.w3.org/2000/svg">
  <path
    fill-rule="evenodd"
    clip-rule="evenodd"
    d="M12.188 16.9823C11.8737 17.0421 11.5362 16.9504 11.2929 16.7071C11.2906 16.7049 11.2884 16.7027 11.2862 16.7004L4.22185 9.63603C3.83132 9.24551 3.83132 8.61234 4.22185 8.22182C4.61237 7.83129 5.24554 7.83129 5.63606 8.22182L12 14.5858L18.3639 8.22183C18.7545 7.8313 19.3876 7.8313 19.7781 8.22183C20.1687 8.61235 20.1687 9.24551 19.7781 9.63604L12.7126 16.7016C12.7108 16.7034 12.709 16.7053 12.7071 16.7071C12.5599 16.8543 12.3782 16.946 12.188 16.9823Z"
  />
</svg>
