<svg width="24" height="24" viewBox="0 0 24 24" fill="none" xmlns="http://www.w3.org/2000/svg">
  <path
    fill-rule="evenodd"
    clip-rule="evenodd"
    d="M3.15882 9.03969L6.92816 9.98203C6.97086 9.9927 7.01552 9.97421 7.03817 9.93646L9.90918 5.15145C9.94917 5.0848 9.90116 5 9.82343 5H7.40758C6.83086 5 6.28221 5.24896 5.90243 5.68299L3.10782 8.87683C3.05857 8.93311 3.08627 9.02156 3.15882 9.03969ZM15.8234 10L8.17667 10C8.09894 10 8.05093 9.9152 8.09092 9.84855L10.9709 5.04855C10.989 5.01843 11.0215 5 11.0567 5H12.9434C12.9786 5 13.0111 5.01843 13.0292 5.04855L15.9092 9.84855C15.9492 9.9152 15.9012 10 15.8234 10ZM8.14775 11H15.8523C15.9231 11 15.9715 11.0715 15.9452 11.1371L12.0929 20.7679C12.0594 20.8517 11.9407 20.8517 11.9072 20.7679L8.0549 11.1371C8.02863 11.0715 8.077 11 8.14775 11ZM17.0719 9.98203L20.8413 9.03969C20.9138 9.02156 20.9415 8.93311 20.8923 8.87683L18.0977 5.68299C17.7179 5.24896 17.1692 5 16.5925 5H14.1767C14.0989 5 14.0509 5.0848 14.0909 5.15145L16.9619 9.93646C16.9846 9.97421 17.0292 9.9927 17.0719 9.98203ZM16.9818 11.0475L14.0514 18.3734C14.0087 18.4803 14.1505 18.5629 14.2224 18.4731L20.8158 10.2313C20.8756 10.1566 20.8063 10.0486 20.7134 10.0719L17.0504 10.9876C17.0193 10.9954 16.9938 11.0177 16.9818 11.0475ZM9.94864 18.3734L7.01825 11.0475C7.00633 11.0177 6.98081 10.9954 6.94966 10.9876L3.28667 10.0719C3.19381 10.0486 3.12454 10.1566 3.18433 10.2313L9.77771 18.4731C9.84957 18.5629 9.99136 18.4803 9.94864 18.3734Z"
    fill="#F5FF83"
  />
</svg>
