<svg width="24" height="24" viewBox="0 0 24 24" fill="none" xmlns="http://www.w3.org/2000/svg">
  <path
    d="M19.207 4.22849L12.9609 8.86753L14.116 6.13056L19.207 4.22849Z"
    fill="#E2761B"
    stroke="#E2761B"
    stroke-linecap="round"
    stroke-linejoin="round"
  />
  <path
    d="M4.78804 4.22849L10.9839 8.91147L9.88534 6.13056L4.78804 4.22849ZM16.96 14.9818L15.2965 17.5304L18.8558 18.5097L19.8791 15.0383L16.96 14.9818ZM4.12891 15.0383L5.14586 18.5097L8.70518 17.5304L7.04165 14.9818L4.12891 15.0383Z"
    fill="#E4761B"
    stroke="#E4761B"
    stroke-linecap="round"
    stroke-linejoin="round"
  />
  <path
    d="M8.50356 10.6755L7.51172 12.1758L11.0459 12.3327L10.9204 8.53485L8.50356 10.6755ZM15.4904 10.6755L13.0422 8.49091L12.9606 12.3327L16.4885 12.1758L15.4904 10.6755ZM8.70444 17.5305L10.8262 16.4947L8.9932 15.0634L8.70444 17.5305ZM13.1677 16.4947L15.2958 17.5305L15.0007 15.0634L13.1677 16.4947Z"
    fill="#E4761B"
    stroke="#E4761B"
    stroke-linecap="round"
    stroke-linejoin="round"
  />
  <path
    d="M15.2964 17.5304L13.1684 16.4947L13.3378 17.882L13.319 18.4658L15.2964 17.5304ZM8.70508 17.5304L10.6825 18.4658L10.6699 17.882L10.8269 16.4947L8.70508 17.5304Z"
    fill="#D7C1B3"
    stroke="#D7C1B3"
    stroke-linecap="round"
    stroke-linejoin="round"
  />
  <path
    d="M10.7136 14.1469L8.94336 13.6259L10.1926 13.0546L10.7136 14.1469ZM13.2811 14.1469L13.8021 13.0546L15.0576 13.6259L13.2811 14.1469Z"
    fill="#233447"
    stroke="#233447"
    stroke-linecap="round"
    stroke-linejoin="round"
  />
  <path
    d="M8.70454 17.5305L9.00586 14.9818L7.04102 15.0383L8.70454 17.5305ZM14.9946 14.9818L15.2959 17.5305L16.9594 15.0383L14.9946 14.9818ZM16.4886 12.1758L12.9607 12.3327L13.2871 14.1469L13.8081 13.0546L15.0636 13.6259L16.4886 12.1758ZM8.94309 13.6259L10.1986 13.0546L10.7133 14.1469L11.046 12.3327L7.51183 12.1758L8.94309 13.6259Z"
    fill="#CD6116"
    stroke="#CD6116"
    stroke-linecap="round"
    stroke-linejoin="round"
  />
  <path
    d="M7.51172 12.1758L8.9932 15.0634L8.94298 13.6259L7.51172 12.1758ZM15.0635 13.6259L15.0007 15.0634L16.4885 12.1758L15.0635 13.6259ZM11.0459 12.3327L10.7132 14.1469L11.1275 16.2875L11.2217 13.4689L11.0459 12.3327ZM12.9606 12.3327L12.7911 13.4627L12.8664 16.2875L13.287 14.1469L12.9606 12.3327Z"
    fill="#E4751F"
    stroke="#E4751F"
    stroke-linecap="round"
    stroke-linejoin="round"
  />
  <path
    d="M13.2874 14.1469L12.8668 16.2875L13.1681 16.4947L15.0011 15.0634L15.0639 13.6259L13.2874 14.1469ZM8.94336 13.6259L8.99358 15.0634L10.8266 16.4947L11.1279 16.2875L10.7136 14.1469L8.94336 13.6259Z"
    fill="#F6851B"
    stroke="#F6851B"
    stroke-linecap="round"
    stroke-linejoin="round"
  />
  <path
    d="M13.319 18.4658L13.3378 17.882L13.1809 17.7439H10.8143L10.6699 17.882L10.6825 18.4658L8.70508 17.5305L9.3956 18.0954L10.7955 19.0684H13.1997L14.6059 18.0954L15.2964 17.5305L13.319 18.4658Z"
    fill="#C0AD9E"
    stroke="#C0AD9E"
    stroke-linecap="round"
    stroke-linejoin="round"
  />
  <path
    d="M13.1684 16.4947L12.867 16.2875H11.1282L10.8269 16.4947L10.6699 17.882L10.8143 17.7439H13.1809L13.3378 17.882L13.1684 16.4947Z"
    fill="#161616"
    stroke="#161616"
    stroke-linecap="round"
    stroke-linejoin="round"
  />
  <path
    d="M19.47 9.16885L20.0036 6.60764L19.2064 4.22849L13.1675 8.71059L15.4901 10.6754L18.7732 11.6359L19.5014 10.7884L19.1876 10.5624L19.6898 10.1042L19.3006 9.80287L19.8027 9.41995L19.47 9.16885ZM3.99609 6.60764L4.52968 9.16885L4.1907 9.41995L4.69289 9.80287L4.30997 10.1042L4.81216 10.5624L4.49829 10.7884L5.2202 11.6359L8.50331 10.6754L10.826 8.71059L4.78705 4.22849L3.99609 6.60764Z"
    fill="#763D16"
    stroke="#763D16"
    stroke-linecap="round"
    stroke-linejoin="round"
  />
  <path
    d="M18.7742 11.6359L15.4911 10.6755L16.4892 12.1758L15.0015 15.0634L16.96 15.0383H19.8791L18.7742 11.6359ZM8.5043 10.6755L5.22118 11.6359L4.12891 15.0383H7.04165L8.99394 15.0634L7.51246 12.1758L8.5043 10.6755ZM12.9613 12.3327L13.1685 8.71062L14.1226 6.13058H9.88534L10.827 8.71062L11.0467 12.3327L11.122 13.4752L11.1283 16.2875H12.8671L12.8797 13.4752L12.9613 12.3327Z"
    fill="#F6851B"
    stroke="#F6851B"
    stroke-linecap="round"
    stroke-linejoin="round"
  />
</svg>
