<svg width="24" height="24" viewBox="0 0 24 24" fill="white" xmlns="http://www.w3.org/2000/svg">
  <path
    fill-rule="evenodd"
    clip-rule="evenodd"
    d="M11.2929 21.7782C11.5362 22.0215 11.8737 22.1132 12.188 22.0533C12.3782 22.0171 12.5599 21.9254 12.7071 21.7782L12.7126 21.7727L19.7781 14.7071C20.1687 14.3166 20.1687 13.6834 19.7781 13.2929C19.3876 12.9024 18.7545 12.9024 18.3639 13.2929L13 18.6568V3C13 2.44772 12.5523 2 12 2C11.4477 2 11 2.44772 11 3V18.6568L5.63606 13.2929C5.24554 12.9024 4.61237 12.9024 4.22185 13.2929C3.83132 13.6834 3.83132 14.3166 4.22185 14.7071L11.2862 21.7715L11.2929 21.7782Z"
  />
</svg>
