<svg width="64" height="64" viewBox="0 0 64 64" fill="none" xmlns="http://www.w3.org/2000/svg">
  <g clip-path="url(#clip0_775_35314)">
    <rect width="64" height="64" rx="32" fill="black" />
    <circle cx="32" cy="32" r="32" fill="black" />
    <path
      fill-rule="evenodd"
      clip-rule="evenodd"
      d="M47.3182 43.1723L40.1321 31.7376H40.3454C43.1903 31.7376 45.4947 29.5223 45.4947 26.7881V25.3911V21.3731V19.8496C45.4947 17.1687 43.233 15 40.4521 15H36.3484H19.2579C18.9379 15 18.6818 15.2461 18.6818 15.5522V21.4263C18.6818 21.7323 18.9379 21.9784 19.2579 21.9784H35.7794C36.0995 21.9784 36.3556 22.2246 36.3556 22.5306V24.8456C36.3556 25.1516 36.0995 25.3978 35.7794 25.3978H19.1939C18.9094 25.3978 18.6818 25.6173 18.6818 25.8901L18.6818 43.1723H22.7727V51.0904C22.3755 51.2253 22.0909 51.5893 22.0909 52.0172C22.0909 52.56 22.5488 53 23.1136 53C23.6785 53 24.1364 52.56 24.1364 52.0172C24.1364 51.5893 23.8518 51.2253 23.4545 51.0904V43.1723H28.2273V31.7442H29.535C29.727 31.7442 29.9048 31.8373 30.0115 31.9904L37.0909 43.1723V47.1593C36.6937 47.2942 36.4091 47.6582 36.4091 48.0861C36.4091 48.6289 36.867 49.0689 37.4318 49.0689C37.9966 49.0689 38.4545 48.6289 38.4545 48.0861C38.4545 47.6582 38.17 47.2942 37.7727 47.1593V43.1723H41.8636V51.0904C41.4664 51.2253 41.1818 51.5893 41.1818 52.0172C41.1818 52.56 41.6397 53 42.2045 53C42.7694 53 43.2273 52.56 43.2273 52.0172C43.2273 51.5893 42.9427 51.2253 42.5455 51.0904V43.1723H46.6364V47.1593C46.2391 47.2942 45.9545 47.6582 45.9545 48.0861C45.9545 48.6289 46.4125 49.0689 46.9773 49.0689C47.5421 49.0689 48 48.6289 48 48.0861C48 47.6582 47.7154 47.2942 47.3182 47.1593V43.1723ZM28.2273 43.1723L27.5455 43.1724V47.1594C27.1482 47.2943 26.8636 47.6583 26.8636 48.0862C26.8636 48.629 27.3215 49.069 27.8864 49.069C28.4512 49.069 28.9091 48.629 28.9091 48.0862C28.9091 47.6583 28.6245 47.2943 28.2273 47.1594V43.1723ZM18.6818 43.1723L19.3636 43.1724V47.1594C19.7609 47.2943 20.0455 47.6583 20.0455 48.0862C20.0455 48.629 19.5876 49.069 19.0227 49.069C18.4579 49.069 18 48.629 18 48.0862C18 47.6583 18.2846 47.2943 18.6818 47.1594V43.1723Z"
      fill="white"
    />
  </g>
  <defs>
    <clipPath id="clip0_775_35314">
      <rect width="64" height="64" rx="32" fill="white" />
    </clipPath>
  </defs>
</svg>
