<svg width="24" height="24" viewBox="0 0 24 24" fill="white" xmlns="http://www.w3.org/2000/svg">
  <path
    fill-rule="evenodd"
    clip-rule="evenodd"
    d="M12 15C11.9827 15 11.9656 14.9996 11.9485 14.9987C11.8597 14.9942 11.7739 14.9781 11.6926 14.9519C11.5463 14.9048 11.4088 14.8232 11.2927 14.7071L8.4628 11.8772C8.07227 11.4867 8.07227 10.8535 8.4628 10.463C8.85332 10.0725 9.48649 10.0725 9.87701 10.463L11 11.586L11 6C11 5.44772 11.4477 5 12 5C12.5523 5 13 5.44771 13 6L13 11.5861L14.1242 10.4619C14.5147 10.0714 15.1479 10.0714 15.5384 10.4619C15.9289 10.8524 15.9289 11.4856 15.5384 11.8761L12.7076 14.7069C12.608 14.8065 12.4926 14.8807 12.3695 14.9295C12.2552 14.975 12.1305 15 12 15ZM5 18V15C5 14.4477 5.44772 14 6 14C6.55228 14 7 14.4477 7 15L7 17H17V15C17 14.4477 17.4477 14 18 14C18.5523 14 19 14.4477 19 15V18C19 18.5523 18.5523 19 18 19H17.9986H6.0014M6 19C5.44772 19 5 18.5523 5 18L6 19Z"
  />
</svg>
