<svg width="24" height="24" viewBox="0 0 24 24" fill="white" xmlns="http://www.w3.org/2000/svg">
  <path
    fill-rule="evenodd"
    clip-rule="evenodd"
    d="M10.2044 2C9.45923 2 8.89001 2.5444 8.77742 3.21998L8.77371 3.24405L8.51271 5.0855C8.2546 5.21737 8.00889 5.36257 7.7756 5.51621L6.03967 4.81893C6.02941 4.81481 6.01908 4.81086 6.00868 4.80708C5.37243 4.57572 4.61 4.80318 4.24281 5.46179L2.4564 8.56696L2.45639 8.56696L2.45495 8.56949C2.12566 9.14574 2.1936 9.96814 2.83634 10.4382L4.2745 11.5576C4.26205 11.7024 4.25444 11.8513 4.25444 12C4.25444 12.1391 4.25818 12.2851 4.26692 12.4337L2.803 13.5731L2.80291 13.5732L2.80273 13.5734C2.22893 14.0199 2.09904 14.8178 2.42822 15.4163L2.43878 15.435L4.23405 18.5393C4.61802 19.2271 5.38541 19.3891 5.96077 19.2061C5.98424 19.1986 6.00743 19.1902 6.03029 19.1811L7.7649 18.4843C8.00034 18.6398 8.2458 18.7843 8.50346 18.9154L8.76433 20.756C8.76736 20.7773 8.77107 20.7985 8.77546 20.8196C8.90793 21.4555 9.45381 22 10.2044 22H13.8044C14.5131 22 15.1387 21.4869 15.236 20.75L15.4959 18.9163C15.7535 18.786 16.0006 18.6417 16.2372 18.4853L17.9692 19.1811C17.9795 19.1852 17.9898 19.1891 18.0002 19.1929C18.6361 19.4241 19.3979 19.1971 19.7654 18.5394L21.5607 15.435C21.5637 15.4299 21.5666 15.4247 21.5695 15.4196C21.5706 15.4175 21.5718 15.4153 21.573 15.4132C21.9022 14.8096 21.7908 14.0229 21.1915 13.5692L19.7433 12.4308C19.7507 12.2895 19.7544 12.1461 19.7544 12C19.7544 11.8579 19.7507 11.7127 19.7422 11.5661L21.2059 10.4269L21.2061 10.4266C21.7799 9.98013 21.9098 9.18221 21.5806 8.58371L21.5701 8.565L19.7748 5.4607C19.3909 4.77289 18.6235 4.61088 18.0481 4.79395C18.0246 4.80142 18.0014 4.80975 17.9786 4.81893L16.244 5.51568C16.0085 5.36024 15.7631 5.21572 15.5054 5.08464L15.2445 3.24404L15.2408 3.21998C15.1239 2.51862 14.5242 2 13.8044 2H10.2044ZM10.4164 5.90595L10.6866 4H13.3317L13.6018 5.90595C13.6518 6.25844 13.8854 6.55778 14.2151 6.69192C14.6725 6.87797 15.0935 7.12982 15.5056 7.44304C15.7857 7.65589 16.157 7.70593 16.4834 7.57481L18.2717 6.85651L19.5956 9.14577L18.0746 10.3296C17.7849 10.5551 17.6421 10.9211 17.7024 11.2831C17.7379 11.4962 17.7544 11.739 17.7544 12C17.7544 12.2684 17.7382 12.5147 17.707 12.7491C17.6602 13.0997 17.8021 13.4489 18.0802 13.6674L19.5874 14.8522L18.2623 17.1435L16.474 16.4252C16.1444 16.2928 15.7692 16.3452 15.4885 16.5629C15.0957 16.8675 14.6681 17.12 14.2058 17.3081C13.876 17.4422 13.6424 17.7416 13.5925 18.094L13.3223 20H10.6772L10.407 18.094C10.3571 17.7416 10.1235 17.4422 9.79374 17.3081C9.33636 17.122 8.91541 16.8702 8.50327 16.557C8.2232 16.3441 7.85189 16.2941 7.52546 16.4252L5.73718 17.1435L4.41327 14.8542L5.93428 13.6704C6.22394 13.4449 6.3668 13.0789 6.30646 12.7168C6.27105 12.5044 6.25444 12.2525 6.25444 12C6.25444 11.7874 6.28261 11.5387 6.32521 11.2831C6.38555 10.9211 6.24269 10.5551 5.95302 10.3296L4.43115 9.14509L5.74755 6.85691L7.53483 7.57481C7.86023 7.70552 8.23032 7.65623 8.51017 7.44492C8.91715 7.1376 9.34809 6.87701 9.80311 6.69192C10.1329 6.55778 10.3665 6.25844 10.4164 5.90595ZM10 12C10 10.8954 10.8954 10 12 10C13.1046 10 14 10.8954 14 12C14 13.1046 13.1046 14 12 14C10.8954 14 10 13.1046 10 12ZM12 8C9.79086 8 8 9.79086 8 12C8 14.2091 9.79086 16 12 16C14.2091 16 16 14.2091 16 12C16 9.79086 14.2091 8 12 8Z"
  />
</svg>
