<svg width="24" height="24" viewBox="0 0 24 24" fill="white" xmlns="http://www.w3.org/2000/svg">
  <path
    fill-rule="evenodd"
    clip-rule="evenodd"
    d="M18.5412 10.3647C18.5412 6.7521 15.6126 3.8235 12 3.8235C8.3874 3.8235 5.4588 6.7521 5.4588 10.3647V13.4373C5.4588 13.569 5.44579 13.7004 5.41996 13.8295L5.1196 15.3313C4.87208 16.5689 5.81866 17.7236 7.08076 17.7236H16.9192C18.1813 17.7236 19.1279 16.5689 18.8804 15.3313L18.58 13.8295C18.5542 13.7004 18.5412 13.569 18.5412 13.4373V10.3647ZM12 20.1765C10.932 20.1765 10.0234 19.4939 9.68662 18.5412H14.3134C13.9767 19.4939 13.068 20.1765 12 20.1765Z"
  />
</svg>
