<svg width="24" height="24" viewBox="0 0 24 24" fill="white" xmlns="http://www.w3.org/2000/svg">
  <path
    fill-rule="evenodd"
    clip-rule="evenodd"
    d="M10.2934 3.79253C11.0733 2.5164 12.9267 2.5164 13.7066 3.79253L21.1405 15.9571C21.9549 17.2898 20.9958 19 19.4339 19H4.56613C3.00427 19 2.04513 17.2898 2.85956 15.9571L10.2934 3.79253ZM11 6.99999C11 6.4477 11.4477 5.99999 12 5.99999C12.5523 5.99999 13 6.4477 13 6.99999V13C13 13.5523 12.5523 14 12 14C11.4477 14 11 13.5523 11 13V6.99999ZM12 17C12.5523 17 13 16.5523 13 16C13 15.4477 12.5523 15 12 15C11.4477 15 11 15.4477 11 16C11 16.5523 11.4477 17 12 17Z"
  />
</svg>
