<svg width="24" height="24" viewBox="0 0 24 24" fill="white" xmlns="http://www.w3.org/2000/svg">
  <path
    fill-rule="evenodd"
    clip-rule="evenodd"
    d="M5.63618 16.9498C5.24566 17.3403 5.24566 17.9734 5.63618 18.364C6.02671 18.7545 6.65987 18.7545 7.0504 18.364L12.0001 13.4142L16.9499 18.364C17.3404 18.7545 17.9736 18.7545 18.3641 18.364C18.7546 17.9735 18.7546 17.3403 18.3641 16.9498L13.4143 12L18.3641 7.05026C18.7546 6.65974 18.7546 6.02657 18.3641 5.63605C17.9736 5.24552 17.3404 5.24552 16.9499 5.63605L12.0001 10.5858L7.05037 5.63606C6.65984 5.24554 6.02668 5.24554 5.63615 5.63606C5.24563 6.02659 5.24563 6.65975 5.63615 7.05028L10.5859 12L5.63618 16.9498Z"
  />
</svg>
