<svg width="20" height="21" viewBox="0 0 20 21" fill="none" xmlns="http://www.w3.org/2000/svg">
  <path
    fill-rule="evenodd"
    clip-rule="evenodd"
    d="M11.2497 5.08333C11.2497 5.77369 10.69 6.33333 9.99967 6.33333C9.30932 6.33333 8.74967 5.77369 8.74967 5.08333C8.74967 4.39298 9.30932 3.83333 9.99967 3.83333C10.69 3.83333 11.2497 4.39298 11.2497 5.08333ZM3.33301 10.5C3.33301 10.0398 3.7061 9.66667 4.16634 9.66667H15.833C16.2932 9.66667 16.6663 10.0398 16.6663 10.5C16.6663 10.9602 16.2932 11.3333 15.833 11.3333H4.16634C3.7061 11.3333 3.33301 10.9602 3.33301 10.5ZM9.99967 17.1667C10.69 17.1667 11.2497 16.607 11.2497 15.9167C11.2497 15.2263 10.69 14.6667 9.99967 14.6667C9.30932 14.6667 8.74967 15.2263 8.74967 15.9167C8.74967 16.607 9.30932 17.1667 9.99967 17.1667Z"
  />
</svg>
