<svg width="24" height="24" viewBox="0 0 24 24" fill="white" xmlns="http://www.w3.org/2000/svg">
  <path
    fill-rule="evenodd"
    clip-rule="evenodd"
    d="M12 4C16.4183 4 20 7.58172 20 12C20 16.4183 16.4183 20 12 20C7.58172 20 4 16.4183 4 12C4 7.58172 7.58172 4 12 4ZM12 2C17.5228 2 22 6.47715 22 12C22 17.5228 17.5228 22 12 22C6.47715 22 2 17.5228 2 12C2 6.47715 6.47715 2 12 2ZM11 7C11 6.44772 11.4477 6 12 6C12.5523 6 13 6.44772 13 7V11.5858L15.5968 14.1826C15.9874 14.5732 15.9874 15.2063 15.5968 15.5968C15.2063 15.9874 14.5731 15.9874 14.1826 15.5968L11.3531 12.7673C11.343 12.7572 11.3331 12.7469 11.3235 12.7364C11.1246 12.5537 11 12.2914 11 12V7Z"
  />
</svg>
