<svg width="36" height="36" viewBox="0 0 36 36" fill="none" xmlns="http://www.w3.org/2000/svg">
<path d="M18.0006 32.9333L3.44531 16.0665H32.5558L18.0006 32.9333Z" fill="#00A8EA"/>
<path d="M27.8893 6.99976H8.11181L3.44531 16.0673H32.5558L27.8893 6.99976Z" fill="#33D3F4"/>
<path d="M17.9998 32.9333L12.722 16.0665H23.2775L17.9998 32.9333ZM13.6663 13.8L9.5 6.99976H17.9998L13.6663 13.8ZM22.1105 13.8L17.9998 6.99976H26.4995L22.1105 13.8Z" fill="#40EEFF"/>
<path d="M7.72144 7.86672L5.55469 6.99972L7.72219 6.13347L8.44294 3.53247L9.16519 6.13272L11.3327 6.99897L9.16519 7.86597L8.44294 10.4662L7.72144 7.86672ZM28.2774 16.3335L26.8884 15.8002L28.2774 15.2002L28.7769 13.533L29.2217 15.2002L30.6107 15.8002L29.2217 16.3327L28.7769 18L28.2774 16.3335Z" fill="white"/>
<path opacity="0.2" d="M19.3894 6.99976L7.72241 21.0675L6.72266 19.9343L17.5002 7.00051L19.3894 6.99976ZM25.9452 6.99976L11.0554 24.867L8.72291 22.2L21.3334 6.99976H25.9452Z" fill="white"/>
</svg>
