<svg width="24" height="24" viewBox="0 0 24 24" fill="white" xmlns="http://www.w3.org/2000/svg">
  <path
    fill-rule="evenodd"
    clip-rule="evenodd"
    d="M18.7436 6.52943C17.129 5.23016 14.5748 5.00992 14.4655 5.00199C14.296 4.98773 14.1343 5.0828 14.0646 5.23967C14.0583 5.24917 14.0028 5.37752 13.941 5.57716C15.009 5.75779 16.3209 6.12064 17.5077 6.85742C17.6978 6.97467 17.7565 7.22502 17.6392 7.41515C17.5616 7.54033 17.4301 7.60846 17.2938 7.60846C17.2209 7.60846 17.1464 7.58786 17.0799 7.54667C15.0391 6.28067 12.4912 6.21729 12.0001 6.21729C11.5089 6.21729 8.95945 6.28067 6.92022 7.54667C6.73009 7.6655 6.47974 7.60688 6.36249 7.41674C6.24365 7.22502 6.30228 6.97625 6.49241 6.85742C7.67919 6.12222 8.99114 5.75779 10.0591 5.57874C9.99926 5.38396 9.94538 5.25895 9.93768 5.24109L9.93707 5.23967C9.86577 5.0828 9.70573 4.98457 9.53461 5.00199C9.42528 5.00992 6.8711 5.23016 5.23434 6.54686C4.38031 7.33751 2.67065 11.9578 2.67065 15.9523C2.67065 16.0236 2.68967 16.0918 2.72453 16.1535C3.90338 18.226 7.12145 18.7679 7.85506 18.7917H7.86774C7.99767 18.7917 8.11967 18.7299 8.19573 18.6253L8.93726 17.6049C6.93607 17.0884 5.91408 16.2106 5.85545 16.1583C5.6875 16.0109 5.67166 15.7543 5.8206 15.5863C5.96795 15.4183 6.22464 15.4025 6.39259 15.5499C6.41636 15.572 8.29872 17.1692 12.0001 17.1692C15.683 17.1692 17.5649 15.587 17.6085 15.5504L17.6091 15.5499C17.7771 15.4041 18.0322 15.4183 18.1811 15.5879C18.3285 15.7558 18.3126 16.0109 18.1447 16.1583C18.086 16.2106 17.064 17.0884 15.0629 17.6049L15.8044 18.6253C15.8804 18.7299 16.0024 18.7917 16.1324 18.7917H16.1451C16.8787 18.7679 20.0967 18.226 21.2756 16.1535C21.3104 16.0918 21.3295 16.0236 21.3295 15.9523C21.3295 11.9578 19.6198 7.33751 18.7436 6.52943ZM9.36347 14.3298C8.57916 14.3298 7.94378 13.6041 7.94378 12.7073C7.94378 11.8105 8.57916 11.0848 9.36347 11.0848C10.1478 11.0848 10.7832 11.8105 10.7832 12.7073C10.7832 13.6041 10.1478 14.3298 9.36347 14.3298ZM13.2169 12.7073C13.2169 13.6041 13.8523 14.3298 14.6366 14.3298C15.4209 14.3298 16.0563 13.6041 16.0563 12.7073C16.0563 11.8105 15.4209 11.0848 14.6366 11.0848C13.8523 11.0848 13.2169 11.8105 13.2169 12.7073Z"
  />
</svg>
