<svg width="24" height="24" viewBox="0 0 24 24" fill="white" xmlns="http://www.w3.org/2000/svg">
  <path
    fill-rule="evenodd"
    clip-rule="evenodd"
    d="M16 3C15.4477 3 15 3.44772 15 4C15 4.55228 15.4477 5 16 5H18.6465L12.6429 11.226L10.1484 8.6392C9.95994 8.44374 9.70009 8.33333 9.42857 8.33333C9.15705 8.33333 8.8972 8.44374 8.70873 8.6392L2.28016 15.3059C1.8968 15.7034 1.90831 16.3365 2.30587 16.7198C2.70342 17.1032 3.33648 17.0917 3.71985 16.6941L9.42857 10.774L11.923 13.3608C12.1115 13.5563 12.3713 13.6667 12.6429 13.6667C12.9144 13.6667 13.1742 13.5563 13.3627 13.3608L20 6.47768V9C20 9.55228 20.4477 10 21 10C21.5523 10 22 9.55228 22 9V4C22 3.44772 21.5523 3 21 3H16ZM3 19C2.44772 19 2 19.4477 2 20C2 20.5523 2.44772 21 3 21H21C21.5523 21 22 20.5523 22 20C22 19.4477 21.5523 19 21 19H3Z"
  />
</svg>
