<svg width="24" height="24" viewBox="0 0 24 24" fill="white" xmlns="http://www.w3.org/2000/svg">
  <path
    fill-rule="evenodd"
    clip-rule="evenodd"
    d="M12.2929 4.70685C11.9024 4.31632 11.9024 3.68316 12.2929 3.29264C12.6834 2.90212 13.3166 2.90213 13.7071 3.29266L21.7071 11.2929C21.7071 11.2929 21.7071 11.2929 21.7071 11.2929C22.0976 11.6834 22.0976 12.3166 21.7071 12.7071C21.7071 12.7071 21.7071 12.7071 21.7071 12.7071L21.7071 12.7071L13.7071 20.7073C13.3166 21.0979 12.6835 21.0979 12.2929 20.7074C11.9024 20.3168 11.9024 19.6837 12.2929 19.2931L18.5856 13.0002L2.99999 13.0002C2.44771 13.0002 2 12.5525 2 12.0002C2 11.448 2.44772 11.0002 3.00001 11.0002L18.5861 11.0002L12.2929 4.70685Z"
  />
</svg>
