<svg width="42" height="40" viewBox="0 0 42 40" fill="none" xmlns="http://www.w3.org/2000/svg">
  <g filter="url(#filter0_d_4474_46119)">
    <path
      fill-rule="evenodd"
      clip-rule="evenodd"
      d="M12.1588 16.0397L15.9282 16.982C15.9709 16.9927 16.0155 16.9742 16.0382 16.9365L18.9092 12.1515C18.9492 12.0848 18.9012 12 18.8234 12H16.4076C15.8309 12 15.2822 12.249 14.9024 12.683L12.1078 15.8768C12.0586 15.9331 12.0863 16.0216 12.1588 16.0397ZM24.8234 17L17.1767 17C17.0989 17 17.0509 16.9152 17.0909 16.8485L19.9709 12.0486C19.989 12.0184 20.0215 12 20.0567 12H21.9434C21.9786 12 22.0111 12.0184 22.0292 12.0486L24.9092 16.8486C24.9492 16.9152 24.9012 17 24.8234 17ZM17.1477 18H24.8523C24.9231 18 24.9715 18.0715 24.9452 18.1371L21.0929 27.7679C21.0594 27.8517 20.9407 27.8517 20.9072 27.7679L17.0549 18.1371C17.0286 18.0715 17.077 18 17.1477 18ZM26.0719 16.982L29.8413 16.0397C29.9138 16.0216 29.9415 15.9331 29.8923 15.8768L27.0977 12.683C26.7179 12.249 26.1692 12 25.5925 12H23.1767C23.0989 12 23.0509 12.0848 23.0909 12.1515L25.9619 16.9365C25.9846 16.9742 26.0292 16.9927 26.0719 16.982ZM25.9818 18.0475L23.0514 25.3734C23.0087 25.4803 23.1505 25.5629 23.2224 25.4731L29.8158 17.2313C29.8756 17.1566 29.8063 17.0486 29.7134 17.0719L26.0504 17.9876C26.0193 17.9954 25.9938 18.0177 25.9818 18.0475ZM18.9486 25.3734L16.0183 18.0475C16.0063 18.0177 15.9808 17.9954 15.9497 17.9876L12.2867 17.0719C12.1938 17.0486 12.1245 17.1566 12.1843 17.2313L18.7777 25.4731C18.8496 25.5629 18.9914 25.4803 18.9486 25.3734Z"
      fill="#F5FF83"
    />
  </g>
  <defs>
    <filter
      id="filter0_d_4474_46119"
      x="-3"
      y="-5"
      width="48"
      height="48"
      filterUnits="userSpaceOnUse"
      color-interpolation-filters="sRGB"
    >
      <feFlood flood-opacity="0" result="BackgroundImageFix" />
      <feColorMatrix
        in="SourceAlpha"
        type="matrix"
        values="0 0 0 0 0 0 0 0 0 0 0 0 0 0 0 0 0 0 127 0"
        result="hardAlpha"
      />
      <feOffset />
      <feGaussianBlur stdDeviation="6" />
      <feComposite in2="hardAlpha" operator="out" />
      <feColorMatrix type="matrix" values="0 0 0 0 0.961 0 0 0 0 1 0 0 0 0 0.5125 0 0 0 1 0" />
      <feBlend mode="normal" in2="BackgroundImageFix" result="effect1_dropShadow_4474_46119" />
      <feBlend
        mode="normal"
        in="SourceGraphic"
        in2="effect1_dropShadow_4474_46119"
        result="shape"
      />
    </filter>
  </defs>
</svg>
