<svg width="20" height="20" viewBox="0 0 20 20" fill="none" xmlns="http://www.w3.org/2000/svg">
  <path
    fill-rule="evenodd"
    clip-rule="evenodd"
    d="M16.2926 14.3965L13.4481 9.69472H13.5326C14.6587 9.69472 15.5708 8.78384 15.5708 7.65959V7.08516V5.433V4.80659C15.5708 3.70423 14.6756 2.8125 13.5748 2.8125H11.9504H5.18543C5.05874 2.8125 4.95739 2.91371 4.95739 3.03954V5.45488C4.95739 5.58071 5.05874 5.68192 5.18543 5.68192H11.7252C11.8519 5.68192 11.9532 5.78314 11.9532 5.90894V6.86086C11.9532 6.98669 11.8519 7.0879 11.7252 7.0879H5.16009C5.04748 7.0879 4.95739 7.17818 4.95739 7.29033L4.95739 14.3965H6.5767V17.6523C6.41947 17.7078 6.30682 17.8575 6.30682 18.0334C6.30682 18.2566 6.48807 18.4375 6.71165 18.4375C6.93523 18.4375 7.11648 18.2566 7.11648 18.0334C7.11648 17.8575 7.00383 17.7078 6.84659 17.6523V14.3965H8.7358V9.69747H9.25344C9.32944 9.69747 9.39982 9.73575 9.44206 9.79868L12.2443 14.3965V16.0359C12.0871 16.0914 11.9744 16.2411 11.9744 16.417C11.9744 16.6402 12.1557 16.8211 12.3793 16.8211C12.6028 16.8211 12.7841 16.6402 12.7841 16.417C12.7841 16.2411 12.6714 16.0914 12.5142 16.0359V14.3965H14.1335V17.6523C13.9763 17.7078 13.8636 17.8575 13.8636 18.0334C13.8636 18.2566 14.0449 18.4375 14.2685 18.4375C14.492 18.4375 14.6733 18.2566 14.6733 18.0334C14.6733 17.8575 14.5606 17.7078 14.4034 17.6523V14.3965H16.0227V16.0359C15.8655 16.0914 15.7528 16.2411 15.7528 16.417C15.7528 16.6402 15.9341 16.8211 16.1577 16.8211C16.3812 16.8211 16.5625 16.6402 16.5625 16.417C16.5625 16.2411 16.4499 16.0914 16.2926 16.0359V14.3965ZM8.7358 14.3965L8.46591 14.3966V16.0359C8.30867 16.0914 8.19602 16.2411 8.19602 16.417C8.19602 16.6402 8.37728 16.8211 8.60085 16.8211C8.82443 16.8211 9.00568 16.6402 9.00568 16.417C9.00568 16.2411 8.89303 16.0914 8.7358 16.0359V14.3965ZM4.95739 14.3965L5.22727 14.3966V16.0359C5.38451 16.0914 5.49716 16.2411 5.49716 16.417C5.49716 16.6402 5.31591 16.8211 5.09233 16.8211C4.86875 16.8211 4.6875 16.6402 4.6875 16.417C4.6875 16.2411 4.80015 16.0914 4.95739 16.0359V14.3965Z"
    fill="white"
  />
</svg>
