<svg width="17" height="16" viewBox="0 0 17 16" fill="none" xmlns="http://www.w3.org/2000/svg">
  <path
    fill-rule="evenodd"
    clip-rule="evenodd"
    d="M8.5 14C11.8137 14 14.5 11.3137 14.5 8C14.5 4.68629 11.8137 2 8.5 2C5.18629 2 2.5 4.68629 2.5 8C2.5 11.3137 5.18629 14 8.5 14ZM7.84375 8.69271C7.76042 8.96354 7.71701 9.31771 7.71354 9.75521V9.83333H8.77083V9.75521C8.77431 9.47396 8.80729 9.23785 8.86979 9.04688C8.93229 8.8559 9.02431 8.69271 9.14583 8.55729C9.27083 8.4184 9.44097 8.28299 9.65625 8.15104C10.0035 7.94271 10.2674 7.69271 10.4479 7.40104C10.6319 7.10938 10.724 6.76215 10.724 6.35938C10.724 5.96354 10.6302 5.61458 10.4427 5.3125C10.2552 5.00694 9.98958 4.77083 9.64583 4.60417C9.30208 4.4375 8.90625 4.35417 8.45833 4.35417C8.03819 4.35417 7.65799 4.43403 7.31771 4.59375C6.97743 4.75347 6.70486 4.98958 6.5 5.30208C6.29861 5.61111 6.19097 5.9809 6.17708 6.41146H7.30208C7.31597 6.16146 7.37847 5.95312 7.48958 5.78646C7.60417 5.61632 7.74479 5.49132 7.91146 5.41146C8.0816 5.32812 8.26215 5.28819 8.45312 5.29167C8.66493 5.28819 8.85764 5.3316 9.03125 5.42187C9.20486 5.50868 9.34028 5.63368 9.4375 5.79688C9.53472 5.9566 9.58333 6.14062 9.58333 6.34896C9.58333 6.52604 9.55208 6.6875 9.48958 6.83333C9.42708 6.97917 9.33681 7.11285 9.21875 7.23438C9.10417 7.35243 8.96875 7.45833 8.8125 7.55208C8.55556 7.71181 8.35069 7.87326 8.19792 8.03646C8.04514 8.19965 7.92708 8.4184 7.84375 8.69271ZM7.90104 11.974C8.01562 12.0399 8.14062 12.0729 8.27604 12.0729C8.40799 12.0729 8.52951 12.0399 8.64062 11.974C8.75521 11.9045 8.84549 11.8142 8.91146 11.7031C8.97743 11.5885 9.01042 11.4635 9.01042 11.3281C9.01042 11.1997 8.97743 11.0781 8.91146 10.9635C8.84549 10.849 8.75521 10.7604 8.64062 10.6979C8.52951 10.6319 8.40799 10.599 8.27604 10.599C8.14062 10.599 8.01562 10.6319 7.90104 10.6979C7.78993 10.7604 7.70139 10.849 7.63542 10.9635C7.56944 11.0747 7.53819 11.1962 7.54167 11.3281C7.53819 11.4635 7.56944 11.5885 7.63542 11.7031C7.70139 11.8142 7.78993 11.9045 7.90104 11.974Z"
    fill="#9296AD"
  />
</svg>
