<svg width="24" height="24" viewBox="0 0 24 24" fill="white" xmlns="http://www.w3.org/2000/svg">
  <path
    fill-rule="evenodd"
    clip-rule="evenodd"
    d="M18 7H6V17H18V7ZM6 5C4.89543 5 4 5.89543 4 7V17C4 18.1046 4.89543 19 6 19H18C19.1046 19 20 18.1046 20 17V7C20 5.89543 19.1046 5 18 5H6Z"
  />
  <path
    fill-rule="evenodd"
    clip-rule="evenodd"
    d="M18 11H15V13H18V11ZM15 9C13.8954 9 13 9.89543 13 11V13C13 14.1046 13.8954 15 15 15H18C19.1046 15 20 14.1046 20 13V11C20 9.89543 19.1046 9 18 9H15Z"
  />
</svg>
