<svg width="24" height="24" viewBox="0 0 24 24" fill="white" xmlns="http://www.w3.org/2000/svg">
  <path
    d="M12 4C16.4183 4 20 7.58172 20 12C20 16.4183 16.4183 20 12 20C7.91969 20 4.55286 16.9453 4.06164 12.998C3.99343 12.45 4.44771 12 5 12C5.55229 12 5.99128 12.4511 6.08227 12.9958C6.55663 15.8356 9.02556 18 12 18C15.3137 18 18 15.3137 18 12C18 8.68629 15.3137 6 12 6C10.223 6 8.62644 6.7725 7.5278 8H9C9.55228 8 10 8.44772 10 9C10 9.55228 9.55228 10 9 10H5C4.96548 10 4.93137 9.99825 4.89776 9.99484C4.3935 9.94363 4 9.51777 4 9V5C4 4.44772 4.44772 4 5 4C5.55228 4 6 4.44772 6 5V6.70834C7.46589 5.0475 9.61061 4 12 4Z"
  />
</svg>
