<svg width="24" height="24" viewBox="0 0 24 24" fill="white" xmlns="http://www.w3.org/2000/svg">
  <path
    d="M12.0669 17.9414C10.9298 17.9414 9.98774 17.7852 9.2408 17.4728C8.49387 17.1492 7.93088 16.6973 7.55184 16.1172C7.18395 15.5258 7 14.8285 7 14.0251H9.77592C9.77592 14.3264 9.85953 14.5941 10.0268 14.8285C10.194 15.0628 10.4448 15.2469 10.7793 15.3808C11.1249 15.5035 11.5541 15.5649 12.0669 15.5649C12.7358 15.5649 13.2598 15.4589 13.6388 15.2469C14.029 15.0237 14.2241 14.7057 14.2241 14.2929C14.2241 13.947 14.0624 13.6681 13.7391 13.4561C13.427 13.2329 12.903 13.0879 12.1672 13.0209L11.398 12.954C10.1717 12.8424 9.19621 12.4742 8.47157 11.8494C7.74693 11.2134 7.38462 10.3208 7.38462 9.17155C7.38462 8.37936 7.55741 7.72106 7.90301 7.19665C8.24861 6.67225 8.75028 6.28173 9.40803 6.0251C10.0658 5.75732 10.8573 5.62343 11.7826 5.62343C12.786 5.62343 13.6221 5.77964 14.291 6.09205C14.971 6.39331 15.4838 6.82845 15.8294 7.39749C16.175 7.96653 16.3478 8.6583 16.3478 9.4728H13.5719C13.5719 9.18271 13.4994 8.93166 13.3545 8.71967C13.2096 8.49651 13.0033 8.32357 12.7358 8.20084C12.4794 8.06695 12.1617 8 11.7826 8C11.437 8 11.1416 8.05021 10.8963 8.15063C10.6622 8.23989 10.4783 8.37378 10.3445 8.5523C10.2219 8.71966 10.1605 8.92608 10.1605 9.17155C10.1605 9.4728 10.272 9.75174 10.495 10.0084C10.7291 10.2538 11.1193 10.4045 11.6656 10.4603L12.4348 10.5272C13.8172 10.6388 14.9208 11.007 15.7458 11.6318C16.5819 12.2455 17 13.1325 17 14.2929C17 15.0851 16.8105 15.7545 16.4314 16.3013C16.0524 16.8368 15.495 17.2441 14.7592 17.523C14.0234 17.802 13.126 17.9414 12.0669 17.9414ZM10.7291 20V17.5565H13.1706V20H10.7291ZM10.6622 6.44351V4H13.1037V6.44351H10.6622Z"
  />
</svg>
