<svg width="24" height="24" viewBox="0 0 24 24" fill="white" xmlns="http://www.w3.org/2000/svg">
  <path
    fill-rule="evenodd"
    clip-rule="evenodd"
    d="M9.82929 7C9.41746 5.83481 8.30622 5 7 5C5.34315 5 4 6.34315 4 8C4 9.65685 5.34315 11 7 11C8.30622 11 9.41746 10.1652 9.82929 9H19C19.5523 9 20 8.55228 20 8C20 7.44772 19.5523 7 19 7H9.82929ZM7 7C6.44772 7 6 7.44772 6 8C6 8.55228 6.44772 9 7 9C7.55228 9 8 8.55228 8 8C8 7.44772 7.55228 7 7 7Z"
  />
  <path
    fill-rule="evenodd"
    clip-rule="evenodd"
    d="M4 16C4 15.4477 4.44772 15 5 15H14.1707C14.5825 13.8348 15.6938 13 17 13C18.6569 13 20 14.3431 20 16C20 17.6569 18.6569 19 17 19C15.6938 19 14.5825 18.1652 14.1707 17H5C4.44772 17 4 16.5523 4 16ZM16 16C16 15.4477 16.4477 15 17 15C17.5523 15 18 15.4477 18 16C18 16.5523 17.5523 17 17 17C16.4477 17 16 16.5523 16 16Z"
  />
</svg>
