<svg width="24" height="24" viewBox="0 0 24 24" fill="none" xmlns="http://www.w3.org/2000/svg">
<path fill-rule="evenodd" clip-rule="evenodd" d="M1 6C1 5.44772 1.44772 5 2 5C5.6906 5 8.49131 6.05949 10.3578 8.06955C11.0482 8.81309 11.5909 9.66534 12 10.6051C12.4092 9.66534 12.9518 8.81309 13.6422 8.06955C15.5087 6.05949 18.3094 5 22 5C22.5523 5 23 5.44772 23 6C23 9.6906 21.9405 12.4913 19.9305 14.3578C18.1477 16.0132 15.74 16.8189 13 16.9725V21C13 21.5523 12.5523 22 12 22C11.4477 22 11 21.5523 11 21V16.9725C8.26001 16.8189 5.85231 16.0132 4.06955 14.3578C2.05949 12.4913 1 9.6906 1 6ZM8.89221 9.43045C7.65789 8.10119 5.77427 7.20925 3.03232 7.03232C3.20925 9.77427 4.10119 11.6579 5.43045 12.8922C6.42853 13.819 7.74226 14.4442 9.34561 14.7598L7.29289 12.7071C6.90237 12.3166 6.90237 11.6834 7.29289 11.2929C7.68342 10.9024 8.31658 10.9024 8.70711 11.2929L10.7598 13.3456C10.4442 11.7423 9.81899 10.4285 8.89221 9.43045ZM20.9677 7.03232C18.2257 7.20925 16.3421 8.10119 15.1078 9.43045C14.181 10.4285 13.5558 11.7423 13.2402 13.3456L15.2929 11.2929C15.6834 10.9024 16.3166 10.9024 16.7071 11.2929C17.0976 11.6834 17.0976 12.3166 16.7071 12.7071L14.6544 14.7598C16.2577 14.4442 17.5715 13.819 18.5695 12.8922C19.8988 11.6579 20.7908 9.77427 20.9677 7.03232Z" fill="#191B28"/>
</svg>
