<svg width="24" height="24" viewBox="0 0 24 24" fill="white" xmlns="http://www.w3.org/2000/svg">
  <path
    fill-rule="evenodd"
    clip-rule="evenodd"
    d="M3 16.8477L8.33203 2H10.9468L15.0021 13.2707C14.4839 13.4713 14.1164 13.9745 14.1164 14.5635V14.749C14.1164 15.4118 14.6538 15.9492 15.3167 15.9492H15.9658L16.2891 16.8477H13.8794L12.5249 12.9204H6.73668L5.37891 16.8477H3ZM15.606 14.9492H15.5021H15.1172V14.5884C15.1167 14.5802 15.1164 14.5719 15.1164 14.5635C15.1164 14.5551 15.1167 14.5468 15.1172 14.5385V14.1777H18.2959H18.7646H19.2041C19.2008 15.0501 19.0641 15.8672 18.7939 16.6289C18.5238 17.3906 18.0908 18.0921 17.4951 18.7334C16.9027 19.3747 16.1393 19.9248 15.2051 20.3838L14.6875 19.6611C15.4883 19.2607 16.1556 18.7952 16.6895 18.2646C17.2266 17.734 17.627 17.1416 17.8906 16.4873C18.0862 16.0078 18.211 15.4951 18.2651 14.9492H15.606ZM9.6958 4.71729L11.8742 11.0337H7.38898L9.57275 4.71729H9.6958ZM20.5713 21.9951H21.4941V17.5176H22.8516V16.7461H21.4941V13.25H20.5713V21.9951Z"
  />
</svg>
