<svg width="24" height="24" viewBox="0 0 24 24" fill="none" xmlns="http://www.w3.org/2000/svg">
  <path d="M12.0004 21.9555L2.29688 10.711H21.7039L12.0004 21.9555Z" fill="#00A8EA" />
  <path d="M18.5929 4.6665H5.40788L2.29688 10.7115H21.7039L18.5929 4.6665Z" fill="#33D3F4" />
  <path
    d="M12.0005 21.9555L8.48198 10.711H15.519L12.0005 21.9555ZM9.11148 9.2L6.33398 4.6665H12.0005L9.11148 9.2ZM14.741 9.2L12.0005 4.6665H17.667L14.741 9.2Z"
    fill="#40EEFF"
  />
  <path
    d="M5.14762 5.24451L3.70312 4.66651L5.14812 4.08901L5.62862 2.35501L6.11012 4.08851L7.55512 4.66601L6.11012 5.24401L5.62862 6.97751L5.14762 5.24451ZM18.8516 10.889L17.9256 10.5335L18.8516 10.1335L19.1846 9.02201L19.4811 10.1335L20.4071 10.5335L19.4811 10.8885L19.1846 12L18.8516 10.889Z"
    fill="white"
  />
  <path
    opacity="0.2"
    d="M12.9269 4.6665L5.14892 14.045L4.48242 13.2895L11.6674 4.667L12.9269 4.6665ZM17.2974 4.6665L7.37092 16.578L5.81592 14.8L14.2229 4.6665H17.2974Z"
    fill="white"
  />
</svg>
