<svg width="24" height="24" viewBox="0 0 24 24" fill="white" xmlns="http://www.w3.org/2000/svg">
  <path
    fill-rule="evenodd"
    clip-rule="evenodd"
    d="M8.46288 5.12271L11.2307 2.3549C11.411 2.1415 11.6792 2.00467 11.9794 2.00012C12.0733 1.9982 12.1674 2.00944 12.2588 2.03383C12.4232 2.07761 12.5787 2.164 12.7077 2.29299L15.5385 5.12377C15.929 5.5143 15.929 6.14746 15.5385 6.53799C15.148 6.92851 14.5148 6.92851 14.1243 6.53799L12.9948 5.40852L12.9948 13C12.9948 13.5523 12.5471 14 11.9948 14C11.4425 14 10.9948 13.5523 10.9948 13L10.9948 5.4192L9.87709 6.53692C9.48656 6.92744 8.8534 6.92744 8.46288 6.53692C8.07235 6.1464 8.07235 5.51323 8.46288 5.12271ZM17 10H15V8H17C18.1046 8 19 8.89543 19 10V18C19 19.1046 18.1046 20 17 20H7C5.89543 20 5 19.1046 5 18V10C5 8.89543 5.89543 8 7 8H9V10H7L7 18H17V10Z"
  />
</svg>
