<svg width="24" height="24" viewBox="0 0 24 24" fill="white" xmlns="http://www.w3.org/2000/svg">
  <path
    d="M11.3011 4.42611C11.587 3.85796 12.413 3.85796 12.6989 4.42611L14.5673 8.13923C14.6808 8.36484 14.9002 8.52122 15.1541 8.5574L19.3319 9.15282C19.9711 9.24393 20.2264 10.0144 19.7638 10.4567L16.7407 13.3469C16.557 13.5226 16.4732 13.7756 16.5166 14.0236L17.2302 18.1047C17.3394 18.7291 16.6712 19.2053 16.0994 18.9105L12.3627 16.9837C12.1356 16.8666 11.8644 16.8666 11.6373 16.9837L7.9006 18.9105C7.32884 19.2053 6.66058 18.7291 6.76978 18.1047L7.48343 14.0236C7.5268 13.7756 7.44298 13.5226 7.25929 13.3469L4.23621 10.4567C3.77365 10.0144 4.02889 9.24393 4.66814 9.15283L8.84594 8.5574C9.09979 8.52122 9.31923 8.36484 9.43275 8.13923L11.3011 4.42611Z"
  />
</svg>
