<svg width="20" height="20" viewBox="0 0 20 20" fill="none" xmlns="http://www.w3.org/2000/svg">
  <path
    fill-rule="evenodd"
    clip-rule="evenodd"
    d="M17.2965 12.7458C16.5386 13.4792 15.5312 13.8833 14.4617 13.8833C13.3922 13.8833 12.3846 13.4792 11.6269 12.7458L10.9416 12.0825C10.5982 11.7502 10.5982 11.1996 10.9416 10.8673C11.2694 10.55 11.7899 10.55 12.1178 10.8673L12.8363 11.5627C13.2696 11.9822 13.8458 12.213 14.4617 12.213C15.0754 12.213 15.6519 11.9822 16.0852 11.5627C16.9791 10.6976 16.9791 9.29409 16.0852 8.42894C15.6519 8.00949 15.0754 7.77869 14.4617 7.77869C13.846 7.77869 13.2696 8.00953 12.8363 8.42894L11.6255 9.60086L11.1173 10.0945L10.0971 11.0818L9.58712 11.5737L8.37611 12.7458C7.61839 13.4792 6.6108 13.8833 5.5413 13.8833C4.47179 13.8833 3.4642 13.4792 2.70649 12.7458C1.94864 12.0121 1.5293 11.035 1.5293 9.99584C1.5293 8.95667 1.94863 7.97938 2.70649 7.24587C3.4642 6.51251 4.47179 6.10834 5.5413 6.10834C6.6108 6.10834 7.61839 6.51251 8.37611 7.24587L9.0614 7.90915C9.40476 8.24147 9.40476 8.79207 9.0614 9.12439C8.73354 9.44171 8.21307 9.44171 7.88521 9.12439L7.16667 8.42894C6.73333 8.00953 6.15694 7.77869 5.5413 7.77869C4.92752 7.77869 4.3511 8.00949 3.91773 8.42894C3.48265 8.85004 3.24597 9.40587 3.24597 9.99584C3.24597 10.586 3.48278 11.1433 3.91734 11.5606C4.35065 11.9816 4.92754 12.213 5.5413 12.213C6.15694 12.213 6.73333 11.9821 7.16667 11.5627L8.3775 10.3908L8.88569 9.89721L9.90586 8.90983L10.4158 8.41797L11.6269 7.24587C12.3847 6.51252 13.3921 6.10834 14.4617 6.10834C15.5312 6.10834 16.5388 6.51251 17.2965 7.24587C18.8625 8.76154 18.8624 11.2301 17.2965 12.7458Z"
  />
</svg>
