<svg width="24" height="24" viewBox="0 0 24 24" fill="white" xmlns="http://www.w3.org/2000/svg">
  <path
    fill-rule="evenodd"
    clip-rule="evenodd"
    d="M15.7878 19.0843C16.0293 19.2552 16.3406 19.298 16.6181 19.193C16.8956 19.0873 17.0996 18.8503 17.1611 18.563C17.8128 15.5 19.3938 7.74725 19.9871 4.961C20.0321 4.751 19.9571 4.53275 19.7921 4.3925C19.6271 4.25225 19.3983 4.21175 19.1943 4.2875C16.0496 5.4515 6.36481 9.08525 2.40631 10.55C2.15506 10.643 1.99156 10.8845 1.99981 11.1493C2.00881 11.4148 2.18731 11.645 2.44456 11.7223C4.21981 12.2533 6.55006 12.992 6.55006 12.992C6.55006 12.992 7.63906 16.2808 8.20681 17.9533C8.27806 18.1633 8.44231 18.3283 8.65906 18.3853C8.87506 18.4415 9.10606 18.3823 9.26731 18.23C10.1793 17.369 11.5893 16.0377 11.5893 16.0377C11.5893 16.0377 14.2683 18.002 15.7878 19.0843ZM7.53031 12.5765L8.78956 16.73L9.06931 14.0997C9.06931 14.0997 13.9346 9.7115 16.7081 7.21025C16.7891 7.13675 16.8003 7.01375 16.7328 6.9275C16.6661 6.84125 16.5431 6.821 16.4508 6.8795C13.2363 8.93225 7.53031 12.5765 7.53031 12.5765Z"
  />
</svg>
