<svg width="81" height="80" viewBox="0 0 81 80" fill="none" xmlns="http://www.w3.org/2000/svg">
  <path
    fill-rule="evenodd"
    clip-rule="evenodd"
    d="M61.5192 45.8855C62.9924 47.9643 64.3055 49.9983 65.4303 51.9558C69.5776 59.1714 70.7077 64.5744 68.6127 67.1684C67.7598 68.2254 66.4218 68.75 64.6662 68.75C62.111 68.75 58.6692 67.64 54.5307 65.4455C47.7072 61.8279 39.7201 55.6869 32.0401 48.1541C15.7939 32.2175 6.40463 15.6055 10.6657 10.3317C12.7607 7.73794 17.7627 8.35067 24.7477 12.0485C28.529 14.0531 32.6675 16.8368 36.9125 20.198H64.9505C65.7093 20.198 66.3258 20.8968 66.3258 21.7562V29.0208C66.3258 29.8821 65.711 30.5791 64.9505 30.5791H32.17C27.1057 30.5791 23.001 25.9317 23.001 20.1999H33.6128C31.6083 18.765 29.6716 17.518 27.8467 16.4981C24.435 14.5914 21.6506 13.6107 19.7653 13.6107C18.7613 13.6107 18.0115 13.8887 17.5566 14.4525C16.2452 16.0753 17.3504 20.0923 20.5915 25.4756C23.1912 29.7941 26.9316 34.6194 31.3632 39.4117C32.6035 37.1604 34.8087 35.663 37.3248 35.663H65.2098C65.8248 35.663 66.3241 36.2287 66.3241 36.9256V44.6227C66.3241 45.3196 65.8248 45.8855 65.2098 45.8855H61.5192ZM61.903 60.9314C62.9052 60.9314 63.6498 60.6573 64.0975 60.1034C65.4089 58.4806 64.3019 54.4636 61.0608 49.0803C60.4353 48.0427 59.744 46.9739 58.9943 45.8855H44.2193C42.9185 45.8855 41.863 47.0795 41.863 48.5536V49.5149C50.6695 57.0142 58.1146 60.9314 61.903 60.9314ZM30.3016 60.1816V49.3051C30.3683 49.3706 30.4343 49.4371 30.5003 49.5035C30.5821 49.5858 30.6641 49.6683 30.7476 49.7495C34.4258 53.3572 38.1751 56.6519 41.8604 59.5256V60.1816C41.8604 60.8784 41.3611 61.4441 40.7463 61.4441H31.4157C30.8009 61.4441 30.3016 60.8784 30.3016 60.1816Z"
    fill="white"
  />
</svg>
