<svg xmlns="http://www.w3.org/2000/svg" width="24" height="24" viewBox="0 0 24 24" fill="none">
  <path
    d="M11.3498 13.3555C11.0705 10.3148 11.9083 7.78858 13.5839 6.15124C15.4457 4.32678 18.3314 3.5315 21.7756 4.28C21.7756 4.28 15.8645 6.75939 11.3498 13.3555Z"
  />
  <path
    fill-rule="evenodd"
    clip-rule="evenodd"
    d="M12.0069 20.8409C12.1466 19.4374 12.5189 17.192 13.5894 14.6658C19.3609 14.8062 22.9447 10.5491 21.7811 4.28041C21.6415 4.32719 15.3581 7.69543 11.4484 15.4143C7.15152 11.4171 2.27101 10.8042 2.00965 10.7835C2.23522 10.7906 6.40339 10.9574 10.7037 13.8238C10.1452 11.8589 8.98158 10.5023 7.53872 9.89414C5.95623 9.23921 3.95484 9.42633 2 10.7362L2.00965 10.7835L2.00222 10.783L2 10.783M2.00222 10.783C2.00222 10.783 2.0065 10.7833 2.00965 10.7835C2.86254 14.9132 6.10912 16.6715 9.58665 15.1336C10.0986 15.6482 10.5175 16.1628 10.8433 16.6306C10.2848 17.8469 9.67974 19.9052 9.67974 20.8409H12.0069"
  />
</svg>
