<svg width="20" height="20" viewBox="0 0 20 20" fill="none" xmlns="http://www.w3.org/2000/svg">
  <path
    fill-rule="evenodd"
    clip-rule="evenodd"
    d="M0.3125 10.3693C0.3125 10.058 0.3125 9.7467 0.3125 9.43542C1.15048 9.29462 1.65313 8.81262 1.82046 7.98943C1.82237 7.05475 1.84268 6.12088 1.88138 5.18782C2.08208 4.16587 2.66597 3.4479 3.63305 3.0339C4.10524 2.86069 4.59266 2.79542 5.09531 2.83809C5.09531 3.14938 5.09531 3.46067 5.09531 3.77196C4.17811 3.68573 3.48253 4.02715 3.00854 4.7962C2.89428 5.02472 2.8232 5.26572 2.7953 5.5192C2.78514 6.37272 2.77499 7.22628 2.76483 8.07981C2.64655 8.84142 2.27591 9.44892 1.65291 9.90236C2.27591 10.3558 2.64655 10.9633 2.76483 11.7249C2.77499 12.6989 2.78514 13.673 2.7953 14.647C2.93975 15.5832 3.47287 16.1806 4.39464 16.4394C4.54538 16.4711 4.6977 16.4861 4.8516 16.4846C4.8516 16.7959 4.8516 17.1072 4.8516 17.4185C3.74537 17.401 2.88731 16.929 2.27741 16.0026C2.03177 15.6053 1.8896 15.1735 1.85092 14.7073C1.85567 13.7316 1.83029 12.7626 1.77476 11.8002C1.79775 11.6836 1.78252 11.5681 1.72906 11.4538C1.46643 10.85 0.994242 10.4885 0.3125 10.3693Z"
    fill="#B7EEFF"
  />
  <path
    fill-rule="evenodd"
    clip-rule="evenodd"
    d="M19.6871 9.4354C19.6871 9.74668 19.6871 10.058 19.6871 10.3693C18.863 10.5063 18.3604 10.9783 18.1791 11.7851C18.1772 12.8302 18.1569 13.8745 18.1182 14.9181C17.8109 16.3368 16.9427 17.1652 15.5135 17.4034C15.3819 17.4184 15.2499 17.4235 15.1175 17.4185C15.1175 17.1072 15.1175 16.7959 15.1175 16.4846C16.0573 16.4537 16.7123 16.0119 17.0824 15.1591C17.1423 14.9826 17.1829 14.8018 17.2043 14.6169C17.2055 13.5816 17.2258 12.5473 17.2652 11.514C17.4169 10.8367 17.7774 10.2995 18.3467 9.90233C17.717 9.46606 17.3464 8.8686 17.2347 8.1099C17.2246 7.24632 17.2144 6.38276 17.2043 5.51917C17.0665 4.5692 16.5131 3.9918 15.544 3.78699C15.3334 3.76256 15.1252 3.76758 14.9195 3.80205C14.9043 3.48088 14.8992 3.15955 14.9043 2.83806C16.2717 2.75323 17.2719 3.30552 17.9049 4.49493C18.0069 4.72706 18.078 4.96806 18.1182 5.21792C18.1569 6.15098 18.1772 7.08485 18.1791 8.01953C18.3604 8.82636 18.863 9.29833 19.6871 9.4354Z"
    fill="#B7EEFF"
  />
  <path
    fill-rule="evenodd"
    clip-rule="evenodd"
    d="M8.87285 9.61626C8.5893 9.47182 8.32527 9.2961 8.0808 9.08908C7.16515 8.21365 6.24106 7.35006 5.30859 6.49835C5.77569 6.47825 6.24283 6.47825 6.70993 6.49835C7.46037 7.17013 8.20168 7.85294 8.93378 8.54683C9.42501 8.89917 9.96318 8.98955 10.5484 8.81796C10.699 8.76355 10.8412 8.69327 10.9749 8.60708C11.7466 7.90418 12.5184 7.20125 13.2901 6.49835C13.7575 6.47325 14.2247 6.47828 14.6914 6.51341C13.8995 7.23628 13.1176 7.96931 12.3457 8.71252C12.0748 8.96551 11.7904 9.20148 11.4927 9.42045C10.6403 9.88624 9.76703 9.95152 8.87285 9.61626Z"
    fill="#B7EEFF"
  />
  <path
    opacity="0.071"
    fill-rule="evenodd"
    clip-rule="evenodd"
    d="M8.87266 9.61621C8.85234 9.6363 8.85234 9.6363 8.87266 9.61621V9.61621Z"
    fill="#B7EEFF"
  />
  <path
    fill-rule="evenodd"
    clip-rule="evenodd"
    d="M9.72505 10.3995C10.4295 10.3552 11.0692 10.5309 11.6443 10.9267C12.6791 11.8595 13.7047 12.8035 14.7211 13.7584C14.2438 13.7785 13.7666 13.7785 13.2893 13.7584C12.548 13.0656 11.8067 12.3727 11.0655 11.6798C10.3755 11.2339 9.69002 11.2189 9.00915 11.6346C8.23251 12.3324 7.46583 13.0403 6.70914 13.7584C6.23186 13.7785 5.75462 13.7785 5.27734 13.7584C6.25218 12.8547 7.22702 11.9509 8.20186 11.0472C8.65041 10.6897 9.15815 10.4738 9.72505 10.3995Z"
    fill="#B7EEFF"
  />
</svg>
