<svg width="24" height="24" viewBox="0 0 24 24" fill="white" xmlns="http://www.w3.org/2000/svg">
  <path
    fill-rule="evenodd"
    clip-rule="evenodd"
    d="M12.188 7.01774C11.8737 6.95785 11.5362 7.04957 11.2929 7.29289C11.2906 7.29512 11.2884 7.29735 11.2862 7.29959L4.22185 14.364C3.83132 14.7545 3.83132 15.3877 4.22185 15.7782C4.61237 16.1687 5.24554 16.1687 5.63606 15.7782L12 9.41424L18.3639 15.7782C18.7545 16.1687 19.3876 16.1687 19.7781 15.7782C20.1687 15.3876 20.1687 14.7545 19.7781 14.364L12.7126 7.29841C12.7108 7.29657 12.709 7.29473 12.7071 7.2929C12.5599 7.14569 12.3782 7.05397 12.188 7.01774Z"
  />
</svg>
