<svg width="16" height="16" viewBox="0 0 16 16" fill="none" xmlns="http://www.w3.org/2000/svg">
  <path
    fill-rule="evenodd"
    clip-rule="evenodd"
    d="M12.6667 2.66665H7.33333V3.99998H8.66667C9.40305 3.99998 10 4.59693 10 5.33331V10.6666H12.6667V2.66665ZM10 12V13.3333C10 14.0697 9.40305 14.6666 8.66667 14.6666H3.33333C2.59695 14.6666 2 14.0697 2 13.3333V5.33331C2 4.59693 2.59695 3.99998 3.33333 3.99998H6V2.66665C6 1.93027 6.59695 1.33331 7.33333 1.33331H12.6667C13.403 1.33331 14 1.93027 14 2.66665V10.6666C14 11.403 13.403 12 12.6667 12H10ZM3.33333 13.3333L3.33333 5.33331H8.66667V13.3333H3.33333Z"
    fill="#9296AD"
  />
</svg>
