<svg width="24" height="24" viewBox="0 0 24 24" fill="white" xmlns="http://www.w3.org/2000/svg">
  <mask id="path-1-inside-1_3_204">
    <path
      fill-rule="evenodd"
      clip-rule="evenodd"
      d="M8 3C8.55228 3 9 3.44772 9 4V5H15V4C15 3.44772 15.4477 3 16 3C16.5523 3 17 3.44772 17 4V5H18C19.1046 5 20 5.89543 20 7V9.00001H4V7C4 5.89543 4.89543 5 6 5H7V4C7 3.44772 7.44772 3 8 3ZM4 11H20V17C20 18.1046 19.1046 19 18 19H6C4.89543 19 4 18.1046 4 17V11Z"
    />
  </mask>
  <path
    fill-rule="evenodd"
    clip-rule="evenodd"
    d="M8 3C8.55228 3 9 3.44772 9 4V5H15V4C15 3.44772 15.4477 3 16 3C16.5523 3 17 3.44772 17 4V5H18C19.1046 5 20 5.89543 20 7V9.00001H4V7C4 5.89543 4.89543 5 6 5H7V4C7 3.44772 7.44772 3 8 3ZM4 11H20V17C20 18.1046 19.1046 19 18 19H6C4.89543 19 4 18.1046 4 17V11Z"
  />
  <path
    d="M9 5H7C7 6.10457 7.89543 7 9 7V5ZM15 5V7C16.1046 7 17 6.10457 17 5H15ZM17 5H15C15 6.10457 15.8954 7 17 7V5ZM20 9.00001V11C21.1046 11 22 10.1046 22 9.00001H20ZM4 9.00001H2C2 10.1046 2.89543 11 4 11V9.00001ZM7 5V7C8.10457 7 9 6.10457 9 5H7ZM20 11H22C22 9.89544 21.1046 9.00001 20 9.00001V11ZM4 11V9.00001C2.89543 9.00001 2 9.89544 2 11H4ZM11 4C11 2.34315 9.65685 1 8 1V5C7.44772 5 7 4.55228 7 4H11ZM11 5V4H7V5H11ZM15 3H9V7H15V3ZM13 4V5H17V4H13ZM16 1C14.3431 1 13 2.34315 13 4H17C17 4.55229 16.5523 5 16 5V1ZM19 4C19 2.34315 17.6569 1 16 1V5C15.4477 5 15 4.55228 15 4H19ZM19 5V4H15V5H19ZM18 3H17V7H18V3ZM22 7C22 4.79086 20.2091 3 18 3V7H22ZM22 9.00001V7H18V9.00001H22ZM4 11H20V7.00001H4V11ZM2 7V9.00001H6V7H2ZM6 3C3.79086 3 2 4.79086 2 7H6V3ZM7 3H6V7H7V3ZM5 4V5H9V4H5ZM8 1C6.34315 1 5 2.34315 5 4H9C9 4.55228 8.55228 5 8 5V1ZM20 9.00001H4V13H20V9.00001ZM22 17V11H18V17H22ZM18 21C20.2091 21 22 19.2091 22 17H18V21ZM6 21H18V17H6V21ZM2 17C2 19.2091 3.79086 21 6 21V17H2ZM2 11V17H6V11H2Z"
    mask="url(#path-1-inside-1_3_204)"
  />
</svg>
