<svg width="24" height="24" viewBox="0 0 24 24" fill="white" xmlns="http://www.w3.org/2000/svg">
  <path
    fill-rule="evenodd"
    clip-rule="evenodd"
    d="M12 21C16.9706 21 21 16.9706 21 12C21 7.02944 16.9706 3 12 3C7.02944 3 3 7.02944 3 12C3 16.9706 7.02944 21 12 21ZM10.9365 16.7593C10.4675 16.6974 10.053 16.5932 9.69267 16.4467C9.06845 16.1838 8.59795 15.8166 8.28118 15.3452C7.97373 14.8647 7.82 14.2981 7.82 13.6454H10.1399C10.1399 13.8902 10.2098 14.1077 10.3495 14.2981C10.4893 14.4885 10.6989 14.6381 10.9784 14.7469C11.2672 14.8466 11.6259 14.8964 12.0545 14.8964C12.6135 14.8964 13.0514 14.8103 13.3681 14.6381C13.6942 14.4568 13.8573 14.1984 13.8573 13.863C13.8573 13.5819 13.7222 13.3553 13.452 13.1831C13.1911 13.0017 12.7532 12.8839 12.1383 12.8295L11.4955 12.7751C10.4706 12.6844 9.6554 12.3853 9.04981 11.8776C8.44422 11.3609 8.14143 10.6356 8.14143 9.70188C8.14143 9.05823 8.28584 8.52336 8.57466 8.09728C8.86348 7.6712 9.28273 7.35391 9.83242 7.1454C10.1455 7.02147 10.4949 6.93283 10.8806 6.87949V5.5H12.9209V6.90559C13.2899 6.96891 13.6207 7.06698 13.9132 7.19979C14.4815 7.44456 14.9101 7.79812 15.1989 8.26046C15.4877 8.7228 15.6321 9.28487 15.6321 9.94665H13.3122C13.3122 9.71095 13.2517 9.50697 13.1306 9.33473C13.0094 9.15342 12.8371 9.0129 12.6135 8.91318C12.3992 8.80439 12.1337 8.75 11.8169 8.75C11.5281 8.75 11.2812 8.79079 11.0762 8.87238C10.8806 8.94491 10.7268 9.0537 10.615 9.19874C10.5125 9.33473 10.4613 9.50244 10.4613 9.70188C10.4613 9.94665 10.5545 10.1733 10.7408 10.3818C10.9365 10.5812 11.2625 10.7036 11.7191 10.749L12.3619 10.8033C13.5172 10.894 14.4396 11.1932 15.129 11.7008C15.8278 12.1994 16.1771 12.9202 16.1771 13.863C16.1771 14.5066 16.0188 15.0506 15.702 15.4948C15.3852 15.9299 14.9194 16.2608 14.3045 16.4874C13.9159 16.6307 13.4733 16.7286 12.9768 16.7814V18.5H10.9365V16.7593Z"
  />
</svg>
