<svg width="24" height="24" viewBox="0 0 24 24" fill="white" xmlns="http://www.w3.org/2000/svg">
  <path
    d="M23 5.89355C22.2627 6.21579 21.4724 6.43215 20.6416 6.53035C21.4896 6.03011 22.1411 5.23832 22.4467 4.29615C21.6548 4.75803 20.7741 5.09408 19.8405 5.27515C19.0923 4.4895 18.0261 4 16.8462 4C14.5798 4 12.742 5.80761 12.742 8.03875C12.742 8.35485 12.7794 8.66328 12.8496 8.95943C9.43909 8.79064 6.41673 7.18251 4.39194 4.73808C4.03811 5.33653 3.83704 6.03011 3.83704 6.76973C3.83704 8.17071 4.56028 9.4075 5.6623 10.1333C4.98893 10.1118 4.35609 9.92922 3.80274 9.62693C3.80274 9.64381 3.80274 9.66069 3.80274 9.67757C3.80274 11.6356 5.21807 13.2667 7.09321 13.6396C6.75029 13.7317 6.38711 13.7808 6.01302 13.7808C5.74803 13.7808 5.49084 13.7562 5.23989 13.7071C5.76362 15.3106 7.2787 16.4814 9.07279 16.5137C7.66994 17.597 5.90079 18.2415 3.97732 18.2415C3.64531 18.2415 3.31954 18.2231 3 18.1847C4.81436 19.3325 6.97163 20 9.28946 20C16.8368 20 20.9643 13.8452 20.9643 8.5083C20.9643 8.33337 20.9596 8.1569 20.9534 7.98504C21.7546 7.41575 22.4498 6.70375 23 5.89355Z"
  />
</svg>
