<svg width="24" height="24" viewBox="0 0 24 24" fill="white" xmlns="http://www.w3.org/2000/svg">
  <path
    fill-rule="evenodd"
    clip-rule="evenodd"
    d="M11 4C14.866 4 18 7.13401 18 11C18 12.5723 17.4816 14.0235 16.6064 15.1921L20.6214 19.2071C21.0119 19.5976 21.0119 20.2308 20.6214 20.6213C20.2309 21.0118 19.5977 21.0118 19.2072 20.6213L15.1922 16.6063C14.0236 17.4816 12.5724 18 11 18C7.13401 18 4 14.866 4 11C4 7.13401 7.13401 4 11 4ZM11 6C8.23858 6 6 8.23858 6 11C6 13.7614 8.23858 16 11 16C13.7614 16 16 13.7614 16 11C16 8.23858 13.7614 6 11 6Z"
  />
</svg>
