<svg width="20" height="20" viewBox="0 0 20 20" fill="none" xmlns="http://www.w3.org/2000/svg">
  <path
    fill-rule="evenodd"
    clip-rule="evenodd"
    d="M12.7441 3.57739C13.0695 3.25195 13.5972 3.25195 13.9226 3.57739L17.2559 6.91072C17.4943 7.14906 17.5656 7.50749 17.4366 7.81888C17.3076 8.13028 17.0037 8.33331 16.6667 8.33331H3.33336C2.87312 8.33331 2.50003 7.96022 2.50003 7.49998C2.50003 7.03974 2.87312 6.66665 3.33336 6.66665H14.6548L12.7441 4.7559C12.4187 4.43046 12.4187 3.90283 12.7441 3.57739ZM2.56346 12.1811C2.69244 11.8697 2.99631 11.6666 3.33336 11.6666H16.6667C17.1269 11.6666 17.5 12.0397 17.5 12.5C17.5 12.9602 17.1269 13.3333 16.6667 13.3333H5.3452L7.25595 15.2441C7.58138 15.5695 7.58138 16.0971 7.25595 16.4226C6.93051 16.748 6.40287 16.748 6.07744 16.4226L2.7441 13.0892C2.50577 12.8509 2.43447 12.4925 2.56346 12.1811Z"
  />
</svg>
