<svg width="24" height="24" viewBox="0 0 24 24" fill="white" xmlns="http://www.w3.org/2000/svg">
  <path
    fill-rule="evenodd"
    clip-rule="evenodd"
    d="M12.7071 2.29289C12.4638 2.04957 12.1263 1.95785 11.812 2.01774C11.6218 2.05397 11.4401 2.14569 11.2929 2.2929L11.2874 2.29841L4.22185 9.36396C3.83133 9.75448 3.83133 10.3876 4.22185 10.7782C4.61238 11.1687 5.24554 11.1687 5.63607 10.7782L11 5.41424L11 21.0711C11 21.6234 11.4477 22.0711 12 22.0711C12.5523 22.0711 13 21.6234 13 21.0711L13 5.41425L18.3639 10.7782C18.7545 11.1687 19.3876 11.1687 19.7782 10.7782C20.1687 10.3877 20.1687 9.75449 19.7782 9.36397L12.7138 2.29957L12.7071 2.29289Z"
  />
</svg>
