<svg width="20" height="20" viewBox="0 0 20 20" fill="none" xmlns="http://www.w3.org/2000/svg">
  <path
    fill-rule="evenodd"
    clip-rule="evenodd"
    d="M15.834 5.00016H6.66732C6.20708 5.00016 5.83398 5.37326 5.83398 5.8335V8.3335C8.59541 8.3335 10.834 10.5721 10.834 13.3335C10.834 13.6174 10.8103 13.8958 10.7649 14.1668H15.834C16.2942 14.1668 16.6673 13.7937 16.6673 13.3335V12.0835H15.0006C13.6199 12.0835 12.5007 10.9642 12.5007 9.5835C12.5007 8.20278 13.6199 7.0835 15.0006 7.0835H16.6673V5.8335C16.6673 5.37326 16.2942 5.00016 15.834 5.00016ZM10.1651 15.8335H15.834C17.2147 15.8335 18.334 14.7142 18.334 13.3335V11.8605C18.8321 11.5724 19.1673 11.0337 19.1673 10.4168V8.75016C19.1673 8.13326 18.8321 7.59464 18.334 7.30647V5.8335C18.334 4.45278 17.2147 3.3335 15.834 3.3335H6.66732C5.28661 3.3335 4.16732 4.45278 4.16732 5.8335V8.61801C2.22533 9.3044 0.833984 11.1565 0.833984 13.3335C0.833984 16.0949 3.07256 18.3335 5.83398 18.3335C7.68469 18.3335 9.30055 17.328 10.1651 15.8335ZM15.0006 8.75016H17.5006V10.4168H15.0006C14.5404 10.4168 14.1673 10.0437 14.1673 9.5835C14.1673 9.12326 14.5404 8.75016 15.0006 8.75016ZM9.16732 13.3335C9.16732 15.1744 7.67493 16.6668 5.83398 16.6668C3.99303 16.6668 2.50065 15.1744 2.50065 13.3335C2.50065 11.4925 3.99303 10.0002 5.83398 10.0002C7.67493 10.0002 9.16732 11.4925 9.16732 13.3335ZM4.16732 12.5002C3.70708 12.5002 3.33398 12.8733 3.33398 13.3335C3.33398 13.7937 3.70708 14.1668 4.16732 14.1668H5.00065V15.0002C5.00065 15.4604 5.37375 15.8335 5.83398 15.8335C6.29422 15.8335 6.66732 15.4604 6.66732 15.0002V14.1668H7.50065C7.96089 14.1668 8.33398 13.7937 8.33398 13.3335C8.33398 12.8733 7.96089 12.5002 7.50065 12.5002H6.66732V11.6668C6.66732 11.2066 6.29422 10.8335 5.83398 10.8335C5.37375 10.8335 5.00065 11.2066 5.00065 11.6668V12.5002H4.16732Z"
  />
</svg>
