<svg width="24" height="24" viewBox="0 0 24 24" fill="white" xmlns="http://www.w3.org/2000/svg">
  <path
    fill-rule="evenodd"
    clip-rule="evenodd"
    d="M6 6C6 5.79289 6.06296 5.60049 6.17078 5.44089C6.23181 5.35056 6.30721 5.27074 6.39369 5.2047C6.56189 5.07628 6.77204 5 7 5H13C13.5523 5 14 5.44772 14 6C14 6.55228 13.5523 7 13 7H8L8 17H13C13.5523 17 14 17.4477 14 18C14 18.5523 13.5523 19 13 19H7C6.44772 19 6 18.5523 6 18V6ZM10 12C10 11.4477 10.4477 11 11 11H16.6668L14.8339 9.16711C14.4434 8.77658 14.4434 8.14342 14.8339 7.75289C15.2245 7.36237 15.8576 7.36237 16.2482 7.75289L19.7846 11.2894C20.1752 11.6799 20.1752 12.313 19.7846 12.7036C19.7788 12.7094 19.7729 12.7152 19.7669 12.7209L16.2471 16.2406C15.8566 16.6312 15.2235 16.6312 14.8329 16.2406C14.4424 15.8501 14.4424 15.2169 14.8329 14.8264L16.6593 13H11C10.4477 13 10 12.5523 10 12Z"
  />
</svg>
