<svg width="24" height="24" viewBox="0 0 24 24" fill="white" xmlns="http://www.w3.org/2000/svg">
  <path
    fill-rule="evenodd"
    clip-rule="evenodd"
    d="M3 6C3 4.89543 3.89543 4 5 4H19C20.1046 4 21 4.89543 21 6V16C21 17.1046 20.1046 18 19 18L10.9995 18L7.85306 21.1464C7.53808 21.4614 6.99951 21.2383 6.99951 20.7929V18L5 18C3.89543 18 3 17.1046 3 16V6ZM8.99988 10.9998C8.99988 11.552 8.55216 11.9998 7.99988 11.9998C7.44759 11.9998 6.99988 11.552 6.99988 10.9998C6.99988 10.4475 7.44759 9.99976 7.99988 9.99976C8.55216 9.99976 8.99988 10.4475 8.99988 10.9998ZM11.9999 11.9998C12.5522 11.9998 12.9999 11.552 12.9999 10.9998C12.9999 10.4475 12.5522 9.99976 11.9999 9.99976C11.4476 9.99976 10.9999 10.4475 10.9999 10.9998C10.9999 11.552 11.4476 11.9998 11.9999 11.9998ZM16.9999 10.9998C16.9999 11.552 16.5522 11.9998 15.9999 11.9998C15.4476 11.9998 14.9999 11.552 14.9999 10.9998C14.9999 10.4475 15.4476 9.99976 15.9999 9.99976C16.5522 9.99976 16.9999 10.4475 16.9999 10.9998Z"
  />
</svg>
