<svg width="36" height="36" viewBox="0 0 36 36" fill="none" xmlns="http://www.w3.org/2000/svg">
<path d="M28.8105 6.34277L19.4414 13.3013L21.174 9.19588L28.8105 6.34277Z" fill="#E2761B" stroke="#E2761B" stroke-linecap="round" stroke-linejoin="round"/>
<path d="M7.18011 6.34277L16.4739 13.3673L14.8261 9.19588L7.18011 6.34277ZM25.4381 22.4727L22.9428 26.2957L28.2818 27.7646L29.8166 22.5575L25.4381 22.4727ZM6.19141 22.5575L7.71683 27.7646L13.0558 26.2957L10.5605 22.4727L6.19141 22.5575Z" fill="#E4761B" stroke="#E4761B" stroke-linecap="round" stroke-linejoin="round"/>
<path d="M12.7553 16.0132L11.2676 18.2636L16.5689 18.499L16.3806 12.8022L12.7553 16.0132ZM23.2356 16.0132L19.5632 12.7363L19.4408 18.499L24.7327 18.2636L23.2356 16.0132ZM13.0567 26.2957L16.2393 24.742L13.4898 22.5951L13.0567 26.2957ZM19.7516 24.742L22.9437 26.2957L22.5011 22.5951L19.7516 24.742Z" fill="#E4761B" stroke="#E4761B" stroke-linecap="round" stroke-linejoin="round"/>
<path d="M22.9436 26.2956L19.7516 24.7419L20.0058 26.8229L19.9775 27.6986L22.9436 26.2956ZM13.0566 26.2956L16.0227 27.6986L16.0039 26.8229L16.2393 24.7419L13.0566 26.2956Z" fill="#D7C1B3" stroke="#D7C1B3" stroke-linecap="round" stroke-linejoin="round"/>
<path d="M16.0694 21.2203L13.4141 20.4388L15.2879 19.5819L16.0694 21.2203ZM19.9207 21.2203L20.7022 19.5819L22.5854 20.4388L19.9207 21.2203Z" fill="#233447" stroke="#233447" stroke-linecap="round" stroke-linejoin="round"/>
<path d="M13.0558 26.2957L13.5078 22.4727L10.5605 22.5575L13.0558 26.2957ZM22.4909 22.4727L22.9428 26.2957L25.4381 22.5575L22.4909 22.4727ZM24.7319 18.2637L19.44 18.4991L19.9297 21.2204L20.7112 19.5819L22.5944 20.4388L24.7319 18.2637ZM13.4137 20.4388L15.2969 19.5819L16.069 21.2204L16.5681 18.4991L11.2668 18.2637L13.4137 20.4388Z" fill="#CD6116" stroke="#CD6116" stroke-linecap="round" stroke-linejoin="round"/>
<path d="M11.2676 18.2637L13.4898 22.5951L13.4145 20.4388L11.2676 18.2637ZM22.5953 20.4388L22.5011 22.5951L24.7327 18.2637L22.5953 20.4388ZM16.5689 18.4991L16.0698 21.2204L16.6913 24.4313L16.8325 20.2034L16.5689 18.4991ZM19.4408 18.4991L19.1866 20.194L19.2996 24.4313L19.9305 21.2204L19.4408 18.4991Z" fill="#E4751F" stroke="#E4751F" stroke-linecap="round" stroke-linejoin="round"/>
<path d="M19.9301 21.2204L19.2992 24.4313L19.7512 24.742L22.5007 22.5952L22.5949 20.4388L19.9301 21.2204ZM13.4141 20.4388L13.4894 22.5952L16.2389 24.742L16.6909 24.4313L16.0694 21.2204L13.4141 20.4388Z" fill="#F6851B" stroke="#F6851B" stroke-linecap="round" stroke-linejoin="round"/>
<path d="M19.9775 27.6987L20.0058 26.823L19.7704 26.6158H16.2205L16.0039 26.823L16.0227 27.6987L13.0566 26.2957L14.0924 27.1431L16.1922 28.6026H19.7986L21.9079 27.1431L22.9436 26.2957L19.9775 27.6987Z" fill="#C0AD9E" stroke="#C0AD9E" stroke-linecap="round" stroke-linejoin="round"/>
<path d="M19.7516 24.742L19.2996 24.4313H16.6913L16.2393 24.742L16.0039 26.823L16.2205 26.6158H19.7704L20.0058 26.823L19.7516 24.742Z" fill="#161616" stroke="#161616" stroke-linecap="round" stroke-linejoin="round"/>
<path d="M29.2051 13.7533L30.0054 9.91151L28.8096 6.34277L19.7512 13.0659L23.2352 16.0132L28.1599 17.4539L29.2521 16.1827L28.7813 15.8437L29.5346 15.1563L28.9508 14.7044L29.7041 14.13L29.2051 13.7533ZM5.99414 9.91151L6.79452 13.7533L6.28604 14.13L7.03934 14.7044L6.46495 15.1563L7.21825 15.8437L6.74744 16.1827L7.8303 17.4539L12.755 16.0132L16.239 13.0659L7.18058 6.34277L5.99414 9.91151Z" fill="#763D16" stroke="#763D16" stroke-linecap="round" stroke-linejoin="round"/>
<path d="M28.1594 17.4538L23.2347 16.0131L24.7319 18.2636L22.5003 22.595L25.4381 22.5574H29.8166L28.1594 17.4538ZM12.7545 16.0131L7.82982 17.4538L6.19141 22.5574H10.5605L13.489 22.595L11.2667 18.2636L12.7545 16.0131ZM19.44 18.499L19.7507 13.0659L21.182 9.1958H14.8261L16.2385 13.0659L16.5681 18.499L16.681 20.2128L16.6905 24.4312H19.2988L19.3176 20.2128L19.44 18.499Z" fill="#F6851B" stroke="#F6851B" stroke-linecap="round" stroke-linejoin="round"/>
</svg>
