<svg width="24" height="24" viewBox="0 0 24 24" fill="white" xmlns="http://www.w3.org/2000/svg">
  <path
    d="M16.9823 12.2591C17.0421 11.9447 16.9504 11.6072 16.7071 11.3639C16.7049 11.3617 16.7027 11.3595 16.7004 11.3573L9.63603 4.29289C9.2455 3.90237 8.61234 3.90237 8.22182 4.29289C7.83129 4.68342 7.83129 5.31658 8.22182 5.70711L14.5858 12.071L8.22183 18.435C7.8313 18.8255 7.8313 19.4587 8.22183 19.8492C8.61235 20.2397 9.24551 20.2397 9.63604 19.8492L16.7016 12.7836C16.7034 12.7818 16.7053 12.78 16.7071 12.7782C16.8543 12.631 16.946 12.4493 16.9823 12.2591Z"
  />
</svg>
