<svg width="24" height="24" viewBox="0 0 24 24" fill="white" xmlns="http://www.w3.org/2000/svg">
  <path
    fill-rule="evenodd"
    clip-rule="evenodd"
    d="M14.7453 17.4766L15.291 15.9569V9.41699H17.7344V8.02832H15.291V1.73535H13.6299V17.4766H14.7453ZM11.1689 3.40527C11.1631 4.97559 10.917 6.44629 10.4307 7.81738C9.94434 9.18848 9.16504 10.4512 8.09277 11.6055C7.02637 12.7598 5.65234 13.75 3.9707 14.5762L3.03906 13.2754C4.48047 12.5547 5.68164 11.7168 6.64258 10.7617C7.60938 9.80664 8.33008 8.74023 8.80469 7.5625C9.15678 6.69943 9.38144 5.77658 9.47866 4.79395H3.8125V3.40527H9.53418H10.3779H11.1689ZM17.2305 13.5156L14.1836 22H15.543L16.3188 19.7559H19.6264L20.4004 22H21.7773L18.7246 13.5156H17.2305ZM19.2546 18.6777L18.0098 15.0684H17.9395L16.6916 18.6777H19.2546Z"
  />
</svg>
