<svg width="24" height="24" viewBox="0 0 24 24" fill="white" xmlns="http://www.w3.org/2000/svg">
  <g clip-path="url(#clip0_9_1253)">
    <path
      fill-rule="evenodd"
      clip-rule="evenodd"
      d="M10.4094 21.8742C7.38549 21.3909 4.81401 19.5519 3.33782 17H7.79676C8.38306 18.7838 9.27454 20.4291 10.4094 21.8742ZM10.4094 2.1258C9.27454 3.57089 8.38306 5.21621 7.79676 7H3.33782C4.81401 4.44812 7.38549 2.60911 10.4094 2.1258ZM2.4578 9H7.28079C7.09646 9.97175 7 10.9746 7 12C7 13.0254 7.09646 14.0282 7.28079 15H2.4578C2.16035 14.053 2 13.0452 2 12C2 10.9548 2.16035 9.94704 2.4578 9ZM13.5906 2.1258C16.6145 2.60911 19.186 4.44812 20.6622 7H16.2032C15.6169 5.21621 14.7255 3.57089 13.5906 2.1258ZM21.5422 9H16.7192C16.9035 9.97175 17 10.9746 17 12C17 13.0254 16.9035 14.0282 16.7192 15H21.5422C21.8396 14.053 22 13.0452 22 12C22 10.9548 21.8396 9.94704 21.5422 9ZM20.6622 17C19.186 19.5519 16.6145 21.3909 13.5906 21.8742C14.7255 20.4291 15.6169 18.7838 16.2032 17H20.6622ZM12 20.6612C11.1333 19.562 10.4278 18.3297 9.91926 17H14.0807C13.5722 18.3297 12.8667 19.562 12 20.6612ZM9 12C9 13.0297 9.11118 14.0335 9.32218 15H14.6778C14.8888 14.0335 15 13.0297 15 12C15 10.9703 14.8888 9.96647 14.6778 9H9.32218C9.11118 9.96647 9 10.9703 9 12ZM9.91926 7C10.4278 5.67033 11.1333 4.43804 12 3.3388C12.8667 4.43804 13.5722 5.67033 14.0807 7H9.91926Z"
    />
  </g>
  <defs>
    <clipPath id="clip0_9_1253">
      <rect width="24" height="24" />
    </clipPath>
  </defs>
</svg>
