<svg width="144" height="144" viewBox="0 0 144 144" fill="none" xmlns="http://www.w3.org/2000/svg">
  <rect width="144" height="144" fill="#191B28" />
  <g clip-path="url(#clip0_218_2633)">
    <path
      d="M54.195 54.8481L35.2046 79.2198C34.1735 80.5414 33.7813 82.2494 34.1175 83.8903C34.9524 87.984 41.2228 97.3922 45.8681 97.3922C57.5628 97.3922 59.3559 70.2764 57.036 55.2849C56.8399 54.0192 54.9907 53.8456 54.195 54.8481Z"
      fill="#F8FFA7"
    />
    <path
      d="M99.7799 46.4255C98.2165 65.1971 99.1467 74.7901 105.305 98.081C109.255 113.022 95.7846 119.899 80.2235 124.262C66.2819 128.17 36.2637 131.424 53.248 107.736C79.9601 70.4836 79.7136 42.2086 53.1808 42.679C48.4514 42.763 58.4761 15.9832 69.6552 16C82.9132 16.0168 101.069 30.9243 99.7799 46.4255Z"
      fill="#F8FFA7"
    />
  </g>
  <defs>
    <clipPath id="clip0_218_2633">
      <rect width="72" height="111" fill="white" transform="translate(34 16)" />
    </clipPath>
  </defs>
</svg>
