<svg
  width="692"
  height="60"
  viewBox="0 0 692 60"
  fill="none"
  xmlns="http://www.w3.org/2000/svg"
  preserveAspectRatio="none"
>
  <path
    fill-rule="evenodd"
    clip-rule="evenodd"
    d="M92.3051 29.76C92.3051 14.2875 102.817 0 120.837 0C138.857 0 151.028 12.9525 151.028 30.24C151.028 45.7125 140.682 60 122.579 60C104.476 60 92.3051 47.13 92.3051 29.76ZM138.782 48.87C138.782 31.8975 121.235 4.425 109.935 4.425C106.774 4.425 104.641 6.7125 104.641 11.13C104.641 28.1025 122.504 55.575 133.406 55.575C136.882 55.575 138.782 53.445 138.782 48.87ZM42.5696 38.325L29.4675 2.6325H0.3125V57.375H18.2125V19.14L33.1992 57.3675H51.8275L66.8067 18.9525V57.3675H84.7066V2.6325H55.5516L42.5696 38.325ZM174.499 2.6325L150.465 57.3675H170.557L174.304 48.1725H199.833L203.579 57.3675H223.672L199.637 2.6325H174.499ZM187.065 16.8692L187.068 16.86H187.061L187.065 16.8692ZM187.065 16.8692L180.401 33.21H193.728L187.065 16.8692ZM228.567 2.6325H247.421V57.3675H228.567V2.6325ZM610.589 0.899414C593.793 0.899414 582.755 11.6994 582.755 28.1619H582.74C582.74 46.2294 594.318 59.0994 611.955 59.0994C621.236 59.0994 629.592 54.3519 633.272 47.7669L633.197 47.6919C631.74 48.3819 629.059 48.6894 626.912 48.6894C610.581 48.6894 594.633 32.6844 594.633 13.1544C594.633 7.02691 597.246 4.42441 600.618 4.42441C606.061 4.42441 612.196 9.55441 623.849 32.3019H623.924L630.674 5.57191C625.08 2.66191 618.488 0.899414 610.589 0.899414ZM329.355 18.2849V2.53491H278.463V57.4799H297.384V39.7499H327.891V23.9999H297.384V18.2849H329.355ZM336.459 2.53491H355.38V57.4799H336.459V2.53491ZM415.156 43.7034L415.16 43.7024V43.7099L415.156 43.7034ZM410.024 35.745V2.53491H428.36V57.4799H404.671L382.521 23.1052V57.4799H364.186V2.53491H388.61L410.024 35.745ZM481.894 2.53491L506.025 57.4799H485.858L482.094 48.2474H456.473L452.709 57.4799H432.541L456.665 2.53491H481.894ZM469.283 16.8288L475.972 33.2324H462.595L469.283 16.8288ZM561.171 43.7034L561.175 43.7024V43.7099L561.171 43.7034ZM556.04 35.7451V2.53491H574.375V57.4799H550.686L528.537 23.1052V57.4799H510.201V2.53491H534.626L556.04 35.7451ZM658.446 42.5324L659.436 36.5324H688.969V23.4899H659.445L658.454 17.4824H691.327V2.53491H638.445L642.477 30.0074L638.445 57.4799H691.687V42.5324H658.446Z"
    fill="#F8FFA7"
  />
</svg>
