<svg width="278" height="40" viewBox="0 0 278 40" fill="none" xmlns="http://www.w3.org/2000/svg">
  <path
    fill-rule="evenodd"
    clip-rule="evenodd"
    d="M0.890625 0H27.5375V8.19337H10.9428V16.7475H25.324V24.9409H10.9428V39.1692H0.890625V0ZM28.8807 12.5766H38.2052V27.2146C38.2052 30.2046 39.4098 31.6965 41.8128 31.6965C44.2158 31.6965 45.3164 30.2046 45.3164 27.2146V12.5766H54.647V27.4714C54.647 31.562 53.5587 34.6681 51.3758 36.8021C49.1929 38.9299 45.989 39.9999 41.7639 39.9999C37.5388 39.9999 34.3348 38.936 32.1519 36.8021C29.9691 34.6742 28.8807 31.562 28.8807 27.4714V12.5766ZM55.7382 20.0492H60.2201V39.1692H69.5508V20.0492H74.9621V12.5774H69.5508V5.72307H60.2201V12.5774H55.7382V20.0492ZM76.8672 12.5766H86.1918V27.2146C86.1918 30.2046 87.3964 31.6965 89.7993 31.6965C92.2023 31.6965 93.3029 30.2046 93.3029 27.2146V12.5766H102.634V27.4714C102.634 31.562 101.545 34.6681 99.3624 36.8021C97.1795 38.9299 93.9755 39.9999 89.7504 39.9999C85.5253 39.9999 82.3213 38.936 80.1385 36.8021C77.9556 34.6742 76.8672 31.562 76.8672 27.4714V12.5766ZM114.853 12.5808H105.779V39.1665H115.11V27.7752C115.11 23.1038 116.877 20.768 120.417 20.768C120.967 20.768 121.567 20.8231 122.221 20.9454C122.875 21.0677 123.425 21.2144 123.872 21.3856L124.642 12.5747C123.786 12.2323 122.771 12.0611 121.603 12.0611C120.026 12.0611 118.656 12.5258 117.507 13.4552C116.351 14.3845 115.489 15.693 114.902 17.3745L114.853 12.5808ZM139.953 39.992C136.621 39.992 133.759 39.4234 131.368 38.2922C128.977 37.161 127.143 35.5346 125.853 33.419C124.563 31.3034 123.921 28.7903 123.921 25.8676C123.921 22.9449 124.502 20.6275 125.676 18.4997C126.844 16.3718 128.476 14.7087 130.573 13.5286C132.671 12.3424 135.092 11.7493 137.843 11.7493C140.595 11.7493 142.845 12.2874 144.802 13.3758C146.758 14.458 148.262 15.9866 149.314 17.9616C150.36 19.9366 150.886 22.3029 150.886 25.0483C150.886 25.5313 150.867 26.0082 150.837 26.4913C150.8 26.9743 150.751 27.4696 150.684 27.9832H133.007C133.417 29.7686 134.303 31.0649 135.661 31.872C137.018 32.6791 138.865 33.0827 141.2 33.0827C142.607 33.0827 144.086 32.9176 145.633 32.5935C147.18 32.2694 148.538 31.8292 149.706 31.2789L150.531 37.9803C149.088 38.6346 147.449 39.1299 145.609 39.4723C143.768 39.8147 141.891 39.9859 139.965 39.9859L139.953 39.992ZM142.117 21.9543C141.879 20.7498 141.378 19.7959 140.626 19.0928C139.867 18.3896 138.889 18.035 137.684 18.035C135.006 18.035 133.386 19.6675 132.842 22.9327H142.221C142.221 22.5902 142.185 22.2601 142.117 21.9543ZM160.364 12.5766H150.006H150L159.795 39.1745H169.64L179.484 12.5766H169.744L164.846 30.2046L160.364 12.5766ZM193.919 39.992C190.587 39.992 187.725 39.4234 185.335 38.2922C182.944 37.161 181.11 35.5346 179.819 33.419C178.529 31.3034 177.887 28.7903 177.887 25.8676C177.887 22.9449 178.468 20.6275 179.642 18.4997C180.81 16.3718 182.442 14.7087 184.54 13.5286C186.637 12.3424 189.058 11.7493 191.81 11.7493C194.561 11.7493 196.811 12.2874 198.768 13.3758C200.725 14.458 202.229 15.9866 203.281 17.9616C204.326 19.9366 204.852 22.3029 204.852 25.0483C204.852 25.5313 204.834 26.0082 204.803 26.4913C204.766 26.9743 204.717 27.4696 204.65 27.9832H186.973C187.383 29.7686 188.27 31.0649 189.627 31.872C190.984 32.6791 192.831 33.0827 195.167 33.0827C196.573 33.0827 198.053 32.9176 199.6 32.5935C201.147 32.2694 202.504 31.8292 203.672 31.2789L204.497 37.9803C203.054 38.6346 201.416 39.1299 199.575 39.4723C197.735 39.8147 195.858 39.9859 193.932 39.9859L193.919 39.992ZM196.084 21.9543C195.845 20.7498 195.344 19.7959 194.592 19.0928C193.834 18.3896 192.855 18.035 191.651 18.035C188.973 18.035 187.352 19.6675 186.808 22.9327H196.188C196.188 22.5902 196.151 22.2601 196.084 21.9543ZM216.396 12.5808H207.322V39.1665H216.653V27.7752C216.653 23.1038 218.42 20.768 221.96 20.768C222.51 20.768 223.11 20.8231 223.764 20.9454C224.418 21.0677 224.969 21.2144 225.415 21.3856L226.185 12.5747C225.329 12.2323 224.314 12.0611 223.146 12.0611C221.569 12.0611 220.199 12.5258 219.05 13.4552C217.894 14.3845 217.032 15.693 216.445 17.3745L216.396 12.5808ZM227.417 30.7714L227.427 30.778L226.396 37.3628C227.564 38.1515 229.129 38.7875 231.086 39.2705C233.043 39.7535 235.054 39.992 237.115 39.992C240.894 39.992 243.847 39.2583 245.956 37.7786C248.066 36.2989 249.124 34.22 249.124 31.5418C249.124 29.2734 248.414 27.4451 247.008 26.051C245.596 24.6569 243.241 23.5135 239.946 22.6208C238.332 22.1745 237.249 21.7709 236.699 21.4102C236.149 21.0494 235.874 20.5969 235.874 20.0466C235.874 18.9155 236.87 18.3468 238.864 18.3468C241.505 18.3468 244.201 19.0194 246.953 20.3585L247.882 13.8649C246.751 13.2107 245.308 12.6971 243.553 12.318C241.805 11.9389 240.031 11.7493 238.246 11.7493C234.706 11.7493 231.924 12.5014 229.894 13.9933C227.87 15.4852 226.855 17.5764 226.855 20.2545C226.855 22.5536 227.546 24.3696 228.94 25.6903C230.334 27.0171 232.676 28.1238 235.977 29.0165C237.628 29.4629 238.711 29.8542 239.224 30.1783C239.738 30.5085 239.995 30.9793 239.995 31.5968C239.995 32.8014 238.827 33.4006 236.491 33.4006C234.944 33.4006 233.379 33.1744 231.801 32.728C230.222 32.2828 228.764 31.6368 227.427 30.778L227.429 30.7653L227.417 30.7714ZM257.592 38.2922C259.983 39.4234 262.845 39.992 266.177 39.992L266.189 39.9859C268.115 39.9859 269.992 39.8147 271.833 39.4723C273.673 39.1299 275.312 38.6346 276.755 37.9803L275.93 31.2789C274.762 31.8292 273.404 32.2694 271.857 32.5935C270.31 32.9176 268.831 33.0827 267.424 33.0827C265.089 33.0827 263.242 32.6791 261.885 31.872C260.527 31.0649 259.641 29.7686 259.231 27.9832H276.908C276.975 27.4696 277.024 26.9743 277.061 26.4913C277.091 26.0082 277.11 25.5313 277.11 25.0483C277.11 22.3029 276.584 19.9366 275.538 17.9616C274.487 15.9866 272.982 14.458 271.026 13.3758C269.069 12.2874 266.819 11.7493 264.068 11.7493C261.316 11.7493 258.895 12.3424 256.797 13.5286C254.7 14.7087 253.068 16.3718 251.9 18.4997C250.732 20.6275 250.145 22.9449 250.145 25.8676C250.145 28.7903 250.787 31.3034 252.077 33.419C253.367 35.5346 255.202 37.161 257.592 38.2922ZM266.844 19.0928C267.602 19.7959 268.103 20.7498 268.342 21.9543C268.409 22.2601 268.446 22.5902 268.446 22.9327H259.066C259.61 19.6675 261.23 18.035 263.909 18.035C265.107 18.035 266.085 18.3896 266.844 19.0928Z"
    fill="white"
  />
</svg>
