<svg width="281" height="72" viewBox="0 0 281 72" fill="none" xmlns="http://www.w3.org/2000/svg">
  <g filter="url(#filter0_d_1105_32263)">
    <path
      fill-rule="evenodd"
      clip-rule="evenodd"
      d="M82.8969 12C70.8749 12 63.8584 21.5269 63.8584 31.8406H63.8534C63.8534 43.4193 71.9728 52 84.0546 52C96.1365 52 103.043 42.4731 103.043 32.1594C103.043 20.6305 94.9188 12 82.8969 12ZM75.6208 14.9482C83.1613 14.9482 94.8689 33.2649 94.8689 44.5797H94.8739C94.8739 47.6325 93.6063 49.0518 91.2858 49.0518C84.0047 49.0518 72.0876 30.7351 72.0876 19.4203C72.0876 16.4721 73.5099 14.9482 75.6208 14.9482ZM207.825 12C195.379 12 188.152 20.6853 188.152 31.5269L188.157 31.5219C188.157 43.26 196.332 51.995 209.726 51.995C215.37 51.995 220.381 50.2072 224.178 47.1544V33.6833H208.354L213.1 37.5777V50.8944C204.027 43.9472 196.856 30.3665 196.856 21.1036C196.856 16.4721 198.912 14.3157 201.497 14.3157C205.769 14.3157 211.148 19.5299 217.476 30.5807H217.581L221.693 15.2122C217.845 13.2102 213.414 12 207.825 12ZM51.1326 13.3251L40.4531 38.5515L29.7736 13.3251H16L32.9674 50.6757H47.6393L64.6067 13.3251H51.1326ZM114.196 13.3251H100.073L117.539 35.7859V50.6757H130.414V35.5822L147.781 13.3251H133.658L123.947 25.8695L114.196 13.3251ZM172.734 13.3251L189.153 50.6757H175.429L172.868 44.4008H155.433L152.872 50.6757H139.148L155.567 13.3251H172.734ZM164.151 23.0379L168.702 34.1916H159.599L164.151 23.0379ZM242.66 36.4326L241.985 40.5163H264.601V50.6757H228.371L231.115 32.0004L228.371 13.3251H264.352V23.4844H241.985L242.66 27.5681H262.755V36.4326H242.66Z"
      fill="white"
    />
  </g>
  <defs>
    <filter
      id="filter0_d_1105_32263"
      x="0"
      y="0"
      width="280.602"
      height="72"
      filterUnits="userSpaceOnUse"
      color-interpolation-filters="sRGB"
    >
      <feFlood flood-opacity="0" result="BackgroundImageFix" />
      <feColorMatrix
        in="SourceAlpha"
        type="matrix"
        values="0 0 0 0 0 0 0 0 0 0 0 0 0 0 0 0 0 0 127 0"
        result="hardAlpha"
      />
      <feOffset dy="4" />
      <feGaussianBlur stdDeviation="8" />
      <feComposite in2="hardAlpha" operator="out" />
      <feColorMatrix
        type="matrix"
        values="0 0 0 0 0.109804 0 0 0 0 0.12549 0 0 0 0 0.2 0 0 0 0.4 0"
      />
      <feBlend mode="normal" in2="BackgroundImageFix" result="effect1_dropShadow_1105_32263" />
      <feBlend
        mode="normal"
        in="SourceGraphic"
        in2="effect1_dropShadow_1105_32263"
        result="shape"
      />
    </filter>
  </defs>
</svg>
