<svg width="521" height="72" viewBox="0 0 521 72" fill="none" xmlns="http://www.w3.org/2000/svg">
  <g filter="url(#filter0_d_1105_32270)">
    <path
      fill-rule="evenodd"
      clip-rule="evenodd"
      d="M57.424 31.8406C57.424 21.5269 64.4405 12 76.4624 12C88.4844 12 96.6088 20.6305 96.6088 32.1594C96.6088 42.4731 89.702 52 77.6202 52C65.5384 52 57.419 43.4193 57.419 31.8406H57.424ZM88.4345 44.5797C88.4345 33.2649 76.7269 14.9482 69.1864 14.9482C67.0755 14.9482 65.6532 16.4721 65.6532 19.4203C65.6532 30.7351 77.5703 49.0518 84.8513 49.0518C87.1719 49.0518 88.4394 47.6325 88.4394 44.5797H88.4345ZM16.6016 13.3246H56.4252V24.7788H42.951V50.6752H30.0757V24.7788H16.6016V13.3246ZM152.366 13.3246H112.542V24.7788H126.017V50.6752H138.892V24.7788H152.366V13.3246ZM156.296 13.3246H169.171V25.9242H185.14V13.3246H198.016V50.6752H185.14V37.2788H169.171V50.6752H156.296V13.3246ZM216.292 36.4321L215.617 40.5158H238.233V50.6752H202.003L204.747 31.9999L202.003 13.3246H237.984V23.4839H215.617L216.292 27.5676H236.387V36.4321H216.292ZM289.661 13.3246V24.0317H267.903V27.9162H288.663V38.6234H267.903V50.6752H255.027V13.3246H289.661ZM307.603 36.6064C307.119 35.6253 306.879 34.455 306.879 33.0954V12.8763H294.004V33.7926C294.004 37.2787 294.827 40.3165 296.474 42.9062C298.121 45.4958 300.417 47.5127 303.361 48.9569C306.305 50.4012 309.709 51.1233 313.666 51.1233C317.624 51.1233 321.077 50.4012 324.021 48.9569C326.966 47.5127 329.251 45.4958 330.883 42.9062C332.515 40.3165 333.329 37.2787 333.329 33.7926V12.8763H320.453V33.0954C320.453 34.455 320.219 35.6352 319.755 36.6313C319.291 37.6273 318.557 38.3842 317.559 38.8972C316.561 39.4101 315.228 39.6691 313.666 39.6691C312.104 39.6691 310.822 39.4052 309.824 38.8723C308.826 38.3394 308.087 37.5874 307.603 36.6064ZM336.924 13.3246H376.748V24.7788H363.274V50.6752H350.398V24.7788H336.924V13.3246ZM393.887 36.6064C393.403 35.6253 393.164 34.455 393.164 33.0954V12.8763H380.289V33.7926C380.289 37.2787 381.112 40.3165 382.759 42.9062C384.406 45.4958 386.701 47.5127 389.646 48.9569C392.59 50.4012 395.993 51.1233 399.951 51.1233C403.908 51.1233 407.362 50.4012 410.306 48.9569C413.25 47.5127 415.536 45.4958 417.168 42.9062C418.8 40.3165 419.613 37.2787 419.613 33.7926V12.8763H406.738V33.0954C406.738 34.455 406.503 35.6352 406.039 36.6313C405.575 37.6273 404.841 38.3842 403.843 38.8972C402.845 39.4101 401.513 39.6691 399.951 39.6691C398.389 39.6691 397.106 39.4052 396.108 38.8723C395.11 38.3394 394.371 37.5874 393.887 36.6064ZM438.03 50.6752V38.225H441.861L450.356 50.6752H465.078L455.435 37.1097C455.788 36.9785 456.133 36.8356 456.469 36.6812C458.715 35.6503 460.462 34.2011 461.709 32.3236C462.957 30.4461 463.581 28.3495 463.581 25.8246C463.581 23.2997 462.957 21.1084 461.709 19.2509C460.462 17.3933 458.715 15.9391 456.469 14.8933C454.224 13.8475 451.604 13.3246 448.61 13.3246H425.155V50.6752H438.03ZM446.613 29.3106H438.03V22.3385H446.613C447.876 22.3385 448.859 22.6373 449.558 23.2349C450.256 23.8325 450.606 24.6941 450.606 25.8246C450.606 26.9551 450.256 27.8166 449.558 28.4142C448.859 29.0118 447.876 29.3106 446.613 29.3106ZM482.159 36.4321L481.484 40.5158H504.101V50.6752H467.87L470.615 31.9999L467.87 13.3246H503.851V23.4839H481.484L482.159 27.5676H502.254V36.4321H482.159Z"
      fill="white"
    />
  </g>
  <defs>
    <filter
      id="filter0_d_1105_32270"
      x="0.601562"
      y="0"
      width="519.5"
      height="72"
      filterUnits="userSpaceOnUse"
      color-interpolation-filters="sRGB"
    >
      <feFlood flood-opacity="0" result="BackgroundImageFix" />
      <feColorMatrix
        in="SourceAlpha"
        type="matrix"
        values="0 0 0 0 0 0 0 0 0 0 0 0 0 0 0 0 0 0 127 0"
        result="hardAlpha"
      />
      <feOffset dy="4" />
      <feGaussianBlur stdDeviation="8" />
      <feComposite in2="hardAlpha" operator="out" />
      <feColorMatrix
        type="matrix"
        values="0 0 0 0 0.109804 0 0 0 0 0.12549 0 0 0 0 0.2 0 0 0 0.4 0"
      />
      <feBlend mode="normal" in2="BackgroundImageFix" result="effect1_dropShadow_1105_32270" />
      <feBlend
        mode="normal"
        in="SourceGraphic"
        in2="effect1_dropShadow_1105_32270"
        result="shape"
      />
    </filter>
  </defs>
</svg>
