<svg viewBox="0 0 249 40" fill="none" xmlns="http://www.w3.org/2000/svg" preserveAspectRatio="none">
  <path
    fill-rule="evenodd"
    clip-rule="evenodd"
    d="M66.8969 0C54.8749 0 47.8584 9.52689 47.8584 19.8406H47.8534C47.8534 31.4193 55.9728 40 68.0546 40C80.1365 40 87.0432 30.4731 87.0432 20.1594C87.0432 8.63048 78.9188 0 66.8969 0ZM59.6208 2.94821C67.1613 2.94821 78.8689 21.2649 78.8689 32.5797H78.8739C78.8739 35.6325 77.6063 37.0518 75.2858 37.0518C68.0047 37.0518 56.0876 18.7351 56.0876 7.42032C56.0876 4.47211 57.5099 2.94821 59.6208 2.94821ZM191.825 0C179.379 0 172.152 8.68526 172.152 19.5269L172.157 19.5219C172.157 31.26 180.332 39.995 193.726 39.995C199.37 39.995 204.381 38.2072 208.178 35.1544V21.6833H192.354L197.1 25.5777V38.8944C188.027 31.9472 180.856 18.3665 180.856 9.10359C180.856 4.47211 182.912 2.31574 185.497 2.31574C189.769 2.31574 195.148 7.52988 201.476 18.5807H201.581L205.693 3.21215C201.845 1.21016 197.414 0 191.825 0ZM35.1326 1.32507L24.4531 26.5515L13.7736 1.32507H0L16.9674 38.6757H31.6393L48.6067 1.32507H35.1326ZM98.1956 1.32507H84.0727L101.539 23.7859V38.6757H114.414V23.5822L131.781 1.32507H117.658L107.947 13.8695L98.1956 1.32507ZM156.734 1.32507L173.153 38.6757H159.429L156.868 32.4008H139.433L136.872 38.6757H123.148L139.567 1.32507H156.734ZM148.151 11.0379L152.702 22.1916H143.599L148.151 11.0379ZM226.66 24.4326L225.985 28.5163H248.601V38.6757H212.371L215.115 20.0004L212.371 1.32507H248.352V11.4844H225.985L226.66 15.5681H246.755V24.4326H226.66Z"
    fill="white"
  />
</svg>
