<svg viewBox="0 0 489 40" fill="none" xmlns="http://www.w3.org/2000/svg" preserveAspectRatio="none">
  <path
    fill-rule="evenodd"
    clip-rule="evenodd"
    d="M41.424 19.8406C41.424 9.52689 48.4405 0 60.4624 0C72.4844 0 80.6088 8.63048 80.6088 20.1594C80.6088 30.4731 73.702 40 61.6202 40C49.5384 40 41.419 31.4193 41.419 19.8406H41.424ZM72.4345 32.5797C72.4345 21.2649 60.7269 2.94821 53.1864 2.94821C51.0755 2.94821 49.6532 4.47211 49.6532 7.42032C49.6532 18.7351 61.5703 37.0518 68.8513 37.0518C71.1719 37.0518 72.4394 35.6325 72.4394 32.5797H72.4345ZM0.601562 1.32458H40.4252V12.7788H26.951V38.6752H14.0757V12.7788H0.601562V1.32458ZM136.366 1.32458H96.5424V12.7788H110.017V38.6752H122.892V12.7788H136.366V1.32458ZM140.296 1.32458H153.171V13.9242H169.14V1.32458H182.016V38.6752H169.14V25.2788H153.171V38.6752H140.296V1.32458ZM200.292 24.4321L199.617 28.5158H222.233V38.6752H186.003L188.747 19.9999L186.003 1.32458H221.984V11.4839H199.617L200.292 15.5676H220.387V24.4321H200.292ZM273.661 1.32458V12.0317H251.903V15.9162H272.663V26.6234H251.903V38.6752H239.027V1.32458H273.661ZM291.603 24.6064C291.119 23.6253 290.879 22.455 290.879 21.0954V0.876274H278.004V21.7926C278.004 25.2787 278.827 28.3165 280.474 30.9062C282.121 33.4958 284.417 35.5127 287.361 36.9569C290.305 38.4012 293.709 39.1233 297.666 39.1233C301.624 39.1233 305.077 38.4012 308.021 36.9569C310.966 35.5127 313.251 33.4958 314.883 30.9062C316.515 28.3165 317.329 25.2787 317.329 21.7926V0.876274H304.453V21.0954C304.453 22.455 304.219 23.6352 303.755 24.6313C303.291 25.6273 302.557 26.3842 301.559 26.8972C300.561 27.4101 299.228 27.6691 297.666 27.6691C296.104 27.6691 294.822 27.4052 293.824 26.8723C292.826 26.3394 292.087 25.5874 291.603 24.6064ZM320.924 1.32458H360.748V12.7788H347.274V38.6752H334.398V12.7788H320.924V1.32458ZM377.887 24.6064C377.403 23.6253 377.164 22.455 377.164 21.0954V0.876274H364.289V21.7926C364.289 25.2787 365.112 28.3165 366.759 30.9062C368.406 33.4958 370.701 35.5127 373.646 36.9569C376.59 38.4012 379.993 39.1233 383.951 39.1233C387.908 39.1233 391.362 38.4012 394.306 36.9569C397.25 35.5127 399.536 33.4958 401.168 30.9062C402.8 28.3165 403.613 25.2787 403.613 21.7926V0.876274H390.738V21.0954C390.738 22.455 390.503 23.6352 390.039 24.6313C389.575 25.6273 388.841 26.3842 387.843 26.8972C386.845 27.4101 385.513 27.6691 383.951 27.6691C382.389 27.6691 381.106 27.4052 380.108 26.8723C379.11 26.3394 378.371 25.5874 377.887 24.6064ZM422.03 38.6752V26.225H425.861L434.356 38.6752H449.078L439.435 25.1097C439.788 24.9785 440.133 24.8356 440.469 24.6812C442.715 23.6503 444.462 22.2011 445.709 20.3236C446.957 18.4461 447.581 16.3495 447.581 13.8246C447.581 11.2997 446.957 9.10844 445.709 7.25087C444.462 5.3933 442.715 3.93912 440.469 2.8933C438.224 1.84749 435.604 1.32458 432.61 1.32458H409.155V38.6752H422.03ZM430.613 17.3106H422.03V10.3385H430.613C431.876 10.3385 432.859 10.6373 433.558 11.2349C434.256 11.8325 434.606 12.6941 434.606 13.8246C434.606 14.9551 434.256 15.8166 433.558 16.4142C432.859 17.0118 431.876 17.3106 430.613 17.3106ZM466.159 24.4321L465.484 28.5158H488.101V38.6752H451.87L454.615 19.9999L451.87 1.32458H487.851V11.4839H465.484L466.159 15.5676H486.254V24.4321H466.159Z"
    fill="white"
  />
</svg>
